<svg class="main-svg" xmlns="http://www.w3.org/2000/svg" xmlns:xlink="http://www.w3.org/1999/xlink" width="700" height="450" style="" viewBox="0 0 700 450"><rect x="0" y="0" width="700" height="450" style="fill: rgb(255, 255, 255); fill-opacity: 1;"/><defs id="defs-52e082"><g class="clips"><clipPath id="clip52e082xyplot" class="plotclip"><rect width="580" height="330"/></clipPath><clipPath class="axesclip" id="clip52e082x"><rect x="60" y="0" width="580" height="450"/></clipPath><clipPath class="axesclip" id="clip52e082y"><rect x="0" y="60" width="700" height="330"/></clipPath><clipPath class="axesclip" id="clip52e082xy"><rect x="60" y="60" width="580" height="330"/></clipPath></g><g class="gradients"/></defs><g class="bglayer"><rect class="bg" x="60" y="60" width="580" height="330" style="fill: rgb(255, 255, 255); fill-opacity: 1; stroke-width: 0;"/></g><g class="layer-below"><g class="imagelayer"/><g class="shapelayer"/></g><g class="cartesianlayer"><g class="subplot xy"><g class="layer-subplot"><g class="shapelayer"/><g class="imagelayer"/></g><g class="gridlayer"><g class="x"><path class="xgrid crisp" d="M0,60v330" transform="translate(142.98000000000002,0)" style="stroke: rgb(238, 238, 238); stroke-opacity: 1; stroke-width: 1px;"/><path class="xgrid crisp" d="M0,60v330" transform="translate(225.95,0)" style="stroke: rgb(238, 238, 238); stroke-opacity: 1; stroke-width: 1px;"/><path class="xgrid crisp" d="M0,60v330" transform="translate(308.93,0)" style="stroke: rgb(238, 238, 238); stroke-opacity: 1; stroke-width: 1px;"/><path class="xgrid crisp" d="M0,60v330" transform="translate(391.9,0)" style="stroke: rgb(238, 238, 238); stroke-opacity: 1; stroke-width: 1px;"/><path class="xgrid crisp" d="M0,60v330" transform="translate(474.88,0)" style="stroke: rgb(238, 238, 238); stroke-opacity: 1; stroke-width: 1px;"/><path class="xgrid crisp" d="M0,60v330" transform="translate(557.85,0)" style="stroke: rgb(238, 238, 238); stroke-opacity: 1; stroke-width: 1px;"/></g><g class="y"><path class="ygrid crisp" d="M60,0h580" transform="translate(0,325.76)" style="stroke: rgb(238, 238, 238); stroke-opacity: 1; stroke-width: 1px;"/><path class="ygrid crisp" d="M60,0h580" transform="translate(0,278.03)" style="stroke: rgb(238, 238, 238); stroke-opacity: 1; stroke-width: 1px;"/><path class="ygrid crisp" d="M60,0h580" transform="translate(0,230.29)" style="stroke: rgb(238, 238, 238); stroke-opacity: 1; stroke-width: 1px;"/><path class="ygrid crisp" d="M60,0h580" transform="translate(0,182.56)" style="stroke: rgb(238, 238, 238); stroke-opacity: 1; stroke-width: 1px;"/><path class="ygrid crisp" d="M60,0h580" transform="translate(0,134.82)" style="stroke: rgb(238, 238, 238); stroke-opacity: 1; stroke-width: 1px;"/><path class="ygrid crisp" d="M60,0h580" transform="translate(0,87.09)" style="stroke: rgb(238, 238, 238); stroke-opacity: 1; stroke-width: 1px;"/></g></g><g class="zerolinelayer"><path class="xzl zl crisp" d="M0,60v330" transform="translate(60,0)" style="stroke: rgb(68, 68, 68); stroke-opacity: 1; stroke-width: 1px;"/><path class="yzl zl crisp" d="M60,0h580" transform="translate(0,373.5)" style="stroke: rgb(68, 68, 68); stroke-opacity: 1; stroke-width: 1px;"/></g><path class="xlines-below"/><path class="ylines-below"/><g class="overlines-below"/><g class="xaxislayer-below"/><g class="yaxislayer-below"/><g class="overaxes-below"/><g class="plot" transform="translate(60, 60)" clip-path="url(#clip52e082xyplot)"><g class="scatterlayer mlayer"><g class="trace scatter trace100937" style="stroke-miterlimit: 2; opacity: 1;"><g class="fills"/><g class="errorbars"/><g class="lines"><path class="js-line" d="M0,313.5L1.66,191.48L2.49,136.95L4.15,42.03L4.98,51.27L5.81,16.5L6.64,32.32L8.3,42.16L9.13,39.07L15.77,81.03L16.6,85.19L19.08,99.27L19.91,103.27L24.06,122.2L24.89,125.65L33.19,149.68L34.02,152L40.66,164.38L41.49,164.69L43.15,166.79L43.98,168.43L46.47,172.24L47.3,172.78L56.42,182.9L57.25,183.3L61.4,185.4L62.23,185.42L64.72,185.29L65.55,185.98L67.21,186.99L68.04,187.7L73.85,192.6L74.68,192.86L81.32,195.92L82.15,196.53L82.98,197.01L83.81,196.55L86.29,202.01L87.12,206.53L89.61,215.62L90.44,216.18L95.42,224.77L96.25,225.62L99.57,229.13L100.4,230.04L102.89,231.67L103.72,232.35L107.87,233.6L108.7,233.53L112.85,235.7L113.68,236.05L116.17,236.76L117,236.75L118.66,236.87L119.48,237.41L121.97,238.51L122.8,238.48L124.46,238.98L125.29,239.65L134.42,241.28L135.25,241.24L136.91,240.93L137.74,240.43L141.06,240.33L141.89,240.45L143.55,240.81L144.38,241.43L146.04,242.45L146.87,243.49L150.19,245.35L151.02,245.36L160.14,247.36L160.97,247.85L165.12,248.36L165.95,248.3L167.61,248.34L168.44,248.1L172.59,248.3L173.42,248.81L175.91,249.62L176.74,249.65L180.06,250.23L180.89,250.51L185.87,250.2L186.7,250.17L188.35,249.46L189.18,249.55L194.16,251.07L194.99,251.2L197.48,251.65L198.31,251.37L204.95,252.04L205.78,251.92L209.93,252.74L210.76,252.51L216.57,253.64L217.4,254L219.06,254.74L219.89,254.76L223.2,256.65L224.03,256.5L229.01,258.02L229.84,257.73L234.82,257.96L235.65,258.18L238.14,257.95L238.97,258.26L243.12,258.26L243.95,257.49L246.44,256.93L247.27,256.94L255.57,258.53L256.39,258.33L260.54,258.21L261.37,258.42L265.52,259.62L266.35,259.9L269.67,260.07L270.5,260.27L272.16,261.04L272.99,261.23L287.93,262.32L288.76,262.18L297.05,262.5L297.88,262.48L305.35,260.44L306.18,260.84L309.5,261.85L310.33,261.59L312.82,261.59L313.65,261.84L320.29,262.37L321.12,262.56L326.92,263.19L327.75,263.66L332.73,264.39L333.56,264.48L336.05,263.14L336.88,263.09L340.2,263.58L341.03,263.64L348.5,264.33L349.33,264.15L355.14,264.95L355.97,265.17L359.28,264.92L360.11,264.69L362.6,264.67L363.43,264.91L378.37,265.7L379.2,265.04L380.86,264.58L381.69,264.66L389.99,266.26L390.82,266.24L393.3,266.09L394.13,266.37L399.11,267.18L399.94,267.14L410.73,267.63L411.56,267.98L414.05,268.22L414.88,268.05L417.37,268.32L418.2,269.05L423.18,269.83L424.01,269.69L443.09,269.22L443.92,269.01L446.41,268.35L447.24,268.23L461.34,269.24L462.17,269.66L464.66,271.19L465.49,271.36L475.45,273.18L476.28,272.93L478.77,272.43L479.6,272.2L484.58,272.19L485.41,272.13L487.9,271.81L488.73,271.81L493.71,271.82L494.54,271.81L506.98,272.42L507.81,272.87L516.11,273.61L516.94,273.69L521.92,274.31L522.75,274.3L524.41,274.47L525.24,274.51L526.9,275.01L527.73,275.57L529.38,276.22L530.21,276.06L539.34,275.02L540.17,275.19L543.49,275.83L544.32,275.88L550.13,275.97L550.96,275.75L557.6,275.48L558.43,275.6L562.58,276.11L563.4,276.25L568.38,275.76L569.21,275.92L570.87,276.64L571.7,276.29L578.34,276.52L579.17,276.51L580,276.33" style="vector-effect: non-scaling-stroke; fill: none; stroke: rgb(31, 119, 180); stroke-opacity: 1; stroke-width: 2px; opacity: 1;"/></g><g class="points"/><g class="text"/></g></g></g><g class="overplot"/><path class="xlines-above crisp" d="M0,0" style="fill: none;"/><path class="ylines-above crisp" d="M0,0" style="fill: none;"/><g class="overlines-above"/><g class="xaxislayer-above"><g class="xtick"><text text-anchor="middle" x="0" y="403" transform="translate(60,0)" style="font-family: 'Open Sans', verdana, arial, sans-serif; font-size: 12px; fill: rgb(68, 68, 68); fill-opacity: 1; white-space: pre;">0</text></g><g class="xtick"><text text-anchor="middle" x="0" y="403" transform="translate(142.98000000000002,0)" style="font-family: 'Open Sans', verdana, arial, sans-serif; font-size: 12px; fill: rgb(68, 68, 68); fill-opacity: 1; white-space: pre;">100</text></g><g class="xtick"><text text-anchor="middle" x="0" y="403" transform="translate(225.95,0)" style="font-family: 'Open Sans', verdana, arial, sans-serif; font-size: 12px; fill: rgb(68, 68, 68); fill-opacity: 1; white-space: pre;">200</text></g><g class="xtick"><text text-anchor="middle" x="0" y="403" transform="translate(308.93,0)" style="font-family: 'Open Sans', verdana, arial, sans-serif; font-size: 12px; fill: rgb(68, 68, 68); fill-opacity: 1; white-space: pre;">300</text></g><g class="xtick"><text text-anchor="middle" x="0" y="403" transform="translate(391.9,0)" style="font-family: 'Open Sans', verdana, arial, sans-serif; font-size: 12px; fill: rgb(68, 68, 68); fill-opacity: 1; white-space: pre;">400</text></g><g class="xtick"><text text-anchor="middle" x="0" y="403" transform="translate(474.88,0)" style="font-family: 'Open Sans', verdana, arial, sans-serif; font-size: 12px; fill: rgb(68, 68, 68); fill-opacity: 1; white-space: pre;">500</text></g><g class="xtick"><text text-anchor="middle" x="0" y="403" transform="translate(557.85,0)" style="font-family: 'Open Sans', verdana, arial, sans-serif; font-size: 12px; fill: rgb(68, 68, 68); fill-opacity: 1; white-space: pre;">600</text></g></g><g class="yaxislayer-above"><g class="ytick"><text text-anchor="end" x="59" y="4.199999999999999" transform="translate(0,373.5)" style="font-family: 'Open Sans', verdana, arial, sans-serif; font-size: 12px; fill: rgb(68, 68, 68); fill-opacity: 1; white-space: pre;">0</text></g><g class="ytick"><text text-anchor="end" x="59" y="4.199999999999999" transform="translate(0,325.76)" style="font-family: 'Open Sans', verdana, arial, sans-serif; font-size: 12px; fill: rgb(68, 68, 68); fill-opacity: 1; white-space: pre;">0.5</text></g><g class="ytick"><text text-anchor="end" x="59" y="4.199999999999999" transform="translate(0,278.03)" style="font-family: 'Open Sans', verdana, arial, sans-serif; font-size: 12px; fill: rgb(68, 68, 68); fill-opacity: 1; white-space: pre;">1</text></g><g class="ytick"><text text-anchor="end" x="59" y="4.199999999999999" transform="translate(0,230.29)" style="font-family: 'Open Sans', verdana, arial, sans-serif; font-size: 12px; fill: rgb(68, 68, 68); fill-opacity: 1; white-space: pre;">1.5</text></g><g class="ytick"><text text-anchor="end" x="59" y="4.199999999999999" transform="translate(0,182.56)" style="font-family: 'Open Sans', verdana, arial, sans-serif; font-size: 12px; fill: rgb(68, 68, 68); fill-opacity: 1; white-space: pre;">2</text></g><g class="ytick"><text text-anchor="end" x="59" y="4.199999999999999" transform="translate(0,134.82)" style="font-family: 'Open Sans', verdana, arial, sans-serif; font-size: 12px; fill: rgb(68, 68, 68); fill-opacity: 1; white-space: pre;">2.5</text></g><g class="ytick"><text text-anchor="end" x="59" y="4.199999999999999" transform="translate(0,87.09)" style="font-family: 'Open Sans', verdana, arial, sans-serif; font-size: 12px; fill: rgb(68, 68, 68); fill-opacity: 1; white-space: pre;">3</text></g></g><g class="overaxes-above"/></g></g><g class="polarlayer"/><g class="ternarylayer"/><g class="geolayer"/><g class="pielayer"/><g class="glimages"/><defs id="topdefs-52e082"><g class="clips"/></defs><g class="layer-above"><g class="imagelayer"/><g class="shapelayer"/></g><g class="infolayer"><g class="g-gtitle"><text class="gtitle" x="350" y="30" text-anchor="middle" style="font-family: 'Open Sans', verdana, arial, sans-serif; font-size: 17px; fill: rgb(68, 68, 68); opacity: 1; font-weight: normal; white-space: pre;">Training loss</text></g><g class="g-xtitle"><text class="xtitle" x="350" y="442" text-anchor="middle" style="font-family: 'Open Sans', verdana, arial, sans-serif; font-size: 14px; fill: rgb(68, 68, 68); opacity: 1; font-weight: normal; white-space: pre;">Iterations</text></g><g class="g-ytitle"><text class="ytitle" transform="rotate(-90,22,225)" x="22" y="225" text-anchor="middle" style="font-family: 'Open Sans', verdana, arial, sans-serif; font-size: 14px; fill: rgb(68, 68, 68); opacity: 1; font-weight: normal; white-space: pre;">Loss</text></g></g></svg>