<svg class="main-svg" xmlns="http://www.w3.org/2000/svg" xmlns:xlink="http://www.w3.org/1999/xlink" width="700" height="450" style="" viewBox="0 0 700 450"><rect x="0" y="0" width="700" height="450" style="fill: rgb(255, 255, 255); fill-opacity: 1;"/><defs id="defs-ae94e1"><g class="clips"><clipPath id="clipae94e1xyplot" class="plotclip"><rect width="580" height="330"/></clipPath><clipPath class="axesclip" id="clipae94e1x"><rect x="60" y="0" width="580" height="450"/></clipPath><clipPath class="axesclip" id="clipae94e1y"><rect x="0" y="60" width="700" height="330"/></clipPath><clipPath class="axesclip" id="clipae94e1xy"><rect x="60" y="60" width="580" height="330"/></clipPath></g><g class="gradients"/></defs><g class="bglayer"/><g class="layer-below"><g class="imagelayer"/><g class="shapelayer"/></g><g class="cartesianlayer"><g class="subplot xy"><g class="layer-subplot"><g class="shapelayer"/><g class="imagelayer"/></g><g class="gridlayer"><g class="x"><path class="xgrid crisp" transform="translate(198.11,0)" d="M0,60v330" style="stroke: rgb(238, 238, 238); stroke-opacity: 1; stroke-width: 1px;"/><path class="xgrid crisp" transform="translate(336.22,0)" d="M0,60v330" style="stroke: rgb(238, 238, 238); stroke-opacity: 1; stroke-width: 1px;"/><path class="xgrid crisp" transform="translate(474.34,0)" d="M0,60v330" style="stroke: rgb(238, 238, 238); stroke-opacity: 1; stroke-width: 1px;"/><path class="xgrid crisp" transform="translate(612.45,0)" d="M0,60v330" style="stroke: rgb(238, 238, 238); stroke-opacity: 1; stroke-width: 1px;"/></g><g class="y"><path class="ygrid crisp" transform="translate(0,295.68)" d="M60,0h580" style="stroke: rgb(238, 238, 238); stroke-opacity: 1; stroke-width: 1px;"/><path class="ygrid crisp" transform="translate(0,217.85)" d="M60,0h580" style="stroke: rgb(238, 238, 238); stroke-opacity: 1; stroke-width: 1px;"/><path class="ygrid crisp" transform="translate(0,140.03)" d="M60,0h580" style="stroke: rgb(238, 238, 238); stroke-opacity: 1; stroke-width: 1px;"/><path class="ygrid crisp" transform="translate(0,62.21)" d="M60,0h580" style="stroke: rgb(238, 238, 238); stroke-opacity: 1; stroke-width: 1px;"/></g></g><g class="zerolinelayer"><path class="xzl zl crisp" transform="translate(60,0)" d="M0,60v330" style="stroke: rgb(68, 68, 68); stroke-opacity: 1; stroke-width: 1px;"/><path class="yzl zl crisp" transform="translate(0,373.5)" d="M60,0h580" style="stroke: rgb(68, 68, 68); stroke-opacity: 1; stroke-width: 1px;"/></g><path class="xlines-below"/><path class="ylines-below"/><g class="overlines-below"/><g class="xaxislayer-below"/><g class="yaxislayer-below"/><g class="overaxes-below"/><g class="plot" transform="translate(60, 60)" clip-path="url(#clipae94e1xyplot)"><g class="scatterlayer mlayer"><g class="trace scatter trace1e7db2" style="stroke-miterlimit: 2; opacity: 1;"><g class="fills"/><g class="errorbars"/><g class="lines"><path class="js-line" d="M0,313.5L0.48,16.5L0.83,19.67L0.9,19.74L0.97,19.5L1.04,20.78L1.1,22.73L4.28,72.82L4.35,74.21L7.39,113.9L7.46,115.58L10.01,158.68L10.08,159.25L15.88,195.4L15.95,195.26L21.96,213.34L22.03,213.27L22.1,213.09L22.51,213.89L22.58,213.84L22.65,213.75L24.51,218.43L24.58,218.28L24.65,218.23L25.21,218.2L25.27,218.47L25.34,218.55L27.9,220.61L27.97,220.39L28.11,220.32L28.52,221.16L28.87,220.99L28.93,220.89L31.49,221.83L31.56,222.14L32.66,223.14L32.73,223.09L32.94,222.7L33.49,223.03L33.56,223.24L33.84,223.49L34.46,222.99L34.53,223.01L35.98,225.51L36.25,225.32L36.32,225.21L37.5,226.53L37.57,226.34L38.4,226.41L38.53,226.15L38.6,226.12L40.05,227.4L40.12,227.74L40.74,227.59L40.81,227.65L40.88,227.9L41.43,228.4L41.5,228.49L42.75,228.66L42.81,228.59L44.06,230.43L44.2,230.19L44.26,230.21L44.4,230.03L44.68,230.51L44.89,230.49L44.96,230.65L46.47,231.8L46.54,231.99L46.96,232.48L47.1,232.18L47.17,232.45L48.06,234.38L48.13,233.94L50.34,226.68L50.41,226.6L51.03,226.13L51.24,226.25L51.31,226.25L52.34,225.59L52.41,225.75L52.48,225.91L53.1,225.76L53.17,225.61L53.24,225.34L54.07,225.64L54.14,225.41L54.21,225.12L54.97,223.61L55.18,224.54L55.24,224.93L56.56,231.95L56.63,232.09L58.21,234.33L58.28,234.41L59.11,235.53L59.18,235.87L60.22,237.29L60.29,237.23L60.56,237L60.98,237.35L61.05,237.48L63.05,239.77L63.12,239.75L63.46,239.33L63.81,239.87L63.88,239.85L64.91,241.35L65.05,241.12L65.12,240.94L66.16,239.62L66.22,239.45L66.29,239.59L66.57,239L66.85,239.15L66.92,239.14L67.54,239.85L67.74,239.36L67.81,239.25L68.64,237.96L68.71,238.08L68.78,237.77L69.82,238.05L69.88,237.91L70.09,237.39L70.71,237.76L70.78,237.93L71.82,238.7L71.89,238.6L71.96,238.64L73.61,241.6L73.96,241.22L74.03,241.15L74.17,241.22L74.37,240.7L74.44,240.46L76.31,243.64L76.38,243.55L76.44,243.4L78.03,241.09L78.1,241.15L78.52,240.56L78.86,240.85L78.93,241.02L79.76,241.15L79.83,240.98L79.9,240.92L80.04,240.7L80.52,241.24L80.59,241.29L81.76,243.26L81.83,243.26L82.18,243.48L82.45,243.1L82.52,242.91L83.63,244.52L83.7,244.69L85.21,248.6L85.63,248.11L85.7,248.11L88.25,247.14L88.39,247.47L88.46,247.58L88.94,247.28L89.29,247.82L89.36,248.04L89.77,248.27L89.91,247.96L89.98,247.6L90.26,247.29L90.67,247.82L90.74,247.78L90.81,247.65L91.91,246.78L91.98,246.87L92.05,246.86L92.19,246.64L92.47,247.34L92.53,247.53L94.19,248.24L94.26,248.46L94.95,249.46L95.3,249.27L95.37,249L96.19,248.84L96.33,249.22L96.4,249.23L96.68,249.14L96.89,249.69L96.95,250.26L97.99,251.25L98.06,250.87L100.27,252.52L100.34,252.4L100.41,252.69L100.96,253.32L101.17,252.91L101.24,252.84L102.2,253.54L102.27,253.41L103.1,253.87L103.17,253.87L104.07,252.47L104.14,252.58L104.21,252.7L106.07,250.98L106.14,250.92L107.24,249.67L107.31,249.8L107.45,249.45L108,250.01L108.07,250.25L109.18,250.24L109.25,250.44L110.21,251.32L110.28,252.03L111.53,253.13L111.59,252.96L111.8,252.5L112.01,253.37L112.22,253.04L112.28,253.55L112.98,254.68L113.11,254.39L113.18,254.13L113.46,254.72L113.8,254.05L113.87,253.93L115.05,254.48L115.12,254.51L117.6,253.31L117.67,253.33L118.22,253.64L118.29,253.83L118.36,253.68L118.71,254.65L118.78,254.81L119.67,254.57L119.74,254.67L119.88,254.53L120.16,255.48L120.3,255.05L120.36,255.44L122.09,257.11L122.16,256.98L122.23,256.89L123.26,258.86L123.4,258.75L123.47,258.86L123.75,258.65L125.96,262.27L126.03,262.16L126.86,262.58L126.99,262.42L127.06,262.41L128.03,263.08L128.1,263.01L128.72,262.88L128.79,262.53L129.76,262.81L129.82,262.63L129.89,262.49L130.52,262.32L130.58,262.58L130.65,262.88L130.72,263.05L131.07,262.47L131.28,262.7L131.34,262.58L131.41,262.76L131.76,262.27L131.9,262.31L131.97,262.04L134.45,262.25L134.52,262.11L135.35,261.67L135.49,261.88L135.56,262.13L137.14,262.69L137.21,262.6L139.15,262.84L139.22,262.62L140.87,263.72L140.94,263.36L142.81,265.96L142.88,265.93L143.98,266.73L144.05,266.61L146.19,266.22L146.26,266.39L147.23,265.31L147.3,265.38L148.54,264.76L148.61,265.15L149.3,264.79L149.37,264.48L150.13,263.52L150.2,263.24L150.54,262.76L150.89,263.15L150.96,263.33L151.99,263.98L152.06,263.92L153.44,262.54L153.65,262.8L153.72,263.04L154.2,263.65L154.27,263.71L157.72,265.94L157.79,265.72L158.55,265.82L158.62,266L159.66,266.88L159.73,267.14L160.42,269.18L160.76,268.58L160.83,268.25L161.45,268.36L161.52,268.6L161.59,268.55L164.42,268.71L164.49,268.94L167.12,270.38L167.18,270.08L168.84,267.44L168.91,267.6L170.36,269.19L170.43,269.33L170.57,269.1L170.84,269.8L171.12,269.54L171.19,269.59L171.95,268.76L172.02,268.44L173.74,265.34L173.81,265.36L174.09,264.99L174.44,265.62L174.5,266.09L175.75,268.62L175.95,268.25L176.02,268.22L177.96,266.06L178.03,266.41L179.48,268.36L179.55,268.12L179.61,268L180.58,268.59L180.65,268.81L181.27,269.02L181.41,268.88L181.48,268.73L182.1,268.56L182.31,268.8L182.38,268.97L182.86,269.46L182.93,269.84L183.55,271.27L183.62,271.43L184.79,273.17L184.86,273.29L185.83,274.05L185.9,274.03L186.11,273.84L186.45,274.42L186.52,274.7L187.69,276.28L187.76,276.29L189.83,276.96L189.9,276.71L190.59,276.84L190.66,276.59L191.98,275.67L192.04,275.52L193.08,274.49L193.15,274.28L195.98,273.79L196.05,273.99L196.39,274.4L196.6,273.75L196.67,273.67L196.74,273.96L197.36,273.5L197.43,273.54L197.5,273.19L198.12,273.52L198.19,273.59L198.4,273.4L198.81,273.95L198.88,273.99L199.85,276.04L199.92,276.35L200.95,277.1L201.02,277.05L201.09,276.91L201.92,277.03L201.99,277.24L202.33,277.9L202.68,277.23L202.75,277.15L204.27,275.73L204.34,275.54L204.47,275.73L204.75,274.92L204.82,274.91L206.96,272.33L207.03,272.44L207.1,272.47L207.58,271.59L207.93,272.02L208,272.07L208.96,272.72L209.03,272.62L209.93,273.03L210,273.09L210.28,272.92L210.48,273.65L210.55,273.58L210.62,273.62L212.21,276.69L212.28,276.67L212.42,276.41L212.55,276.96L212.83,277.05L212.9,277.29L213.87,277.82L213.93,277.78L214,277.64L215.25,279.03L215.32,278.99L215.39,278.86L217.32,278.55L217.39,278.2L218.42,277.47L218.49,277.61L218.56,277.66L219.87,277.73L219.94,277.57L220.29,277.33L220.63,277.63L220.7,277.69L221.95,276.71L222.01,276.75L222.57,276.93L222.77,276.74L222.84,276.62L223.53,276.23L223.6,276.14L226.92,280.27L227.06,280.16L227.12,280.05L228.16,278.9L228.3,278.96L228.37,278.88L229.13,278.87L229.2,278.8L229.54,278.66L230.23,279.79L230.3,279.64L232.1,280.13L232.17,279.87L233.48,278.45L233.55,278.25L233.89,277.86L234.24,278.38L234.31,278.12L234.38,278.14L235.14,279.01L235.48,278.61L235.55,278.6L235.76,279.21L236.24,278.54L236.31,278.42L237.14,278.18L237.21,277.98L237.69,277.15L237.76,276.97L239.55,274.68L239.62,274.79L239.69,274.76L240.66,275.41L240.73,275.54L242.66,277.64L242.73,277.62L243.97,279.1L244.04,278.92L244.11,278.94L244.66,279.86L244.73,280.14L246.53,283.48L246.6,283.41L246.67,283.43L249.02,278.68L249.08,278.85L249.15,278.75L250.12,278.51L250.19,278.47L251.23,279.19L251.29,279.09L251.36,278.99L251.92,278.63L252.26,278.92L252.33,279.05L253.09,278.84L253.16,278.79L253.71,278.56L253.85,278.95L253.92,279.42L255.44,283.96L255.51,283.97L256.68,284.68L256.75,284.72L257.79,284.52L257.85,284.41L258.55,285.42L258.82,285.2L258.89,285.22L259.72,285.36L259.79,285.63L262.21,287.59L262.27,287.5L262.34,287.5L262.69,287.31L263.03,287.69L263.1,287.75L263.38,288.01L263.66,287.26L263.72,287.26L265.93,282.93L266,282.96L267.25,282.84L267.32,283.05L268.35,283.45L268.42,283.23L268.49,283.12L270.22,282.41L270.28,282.53L270.35,282.5L272.15,288.08L272.22,288.08L272.98,288.87L273.12,288.5L273.18,287.83L274.43,285.19L274.57,285.34L274.64,285.24L275.46,285.06L275.53,284.9L278.78,286.1L278.85,286.04L279.68,286.29L279.75,286.38L280.09,287.02L280.16,287.57L280.92,289.38L281.13,288.68L281.2,288.29L283.2,283.47L283.27,283.44L285.96,283L286.03,283.09L288.1,285.38L288.17,286.16L290.1,290.78L290.17,290.68L290.86,291.04L291.07,290.7L291.14,290.61L292.52,290.1L292.59,290.33L294.87,286.9L294.94,287.08L295.9,286.49L295.97,286.61L296.04,286.73L297.15,287.72L297.22,287.5L298.6,288.5L298.8,288.27L298.87,287.97L299.91,286.52L300.19,286.7L300.25,286.82L301.36,285.88L301.43,285.97L302.19,285.43L302.26,285.8L303.98,284.48L304.05,284.47L304.95,284.25L305.02,284.05L306.4,285.58L306.54,285.47L306.61,285.37L307.16,284.85L307.44,285.09L307.51,285.39L308.33,286.11L308.4,286.05L309.51,287.36L309.58,287.46L310.68,287.32L310.75,287.38L312.68,288.88L312.82,288.55L312.89,288.47L313.51,286.87L313.79,287.13L313.86,287.18L315.17,288.34L315.38,288.02L315.45,288.05L317.1,288.58L317.17,288.66L317.66,289.5L318.07,289.16L318.14,288.85L318.69,288.2L318.76,288.03L319.87,287.62L319.94,288.21L320.97,289.84L321.04,289.69L323.32,290.61L323.39,290.49L325.74,290.52L325.81,289.97L326.63,290.16L326.7,290.31L326.77,290.52L328.71,290.51L328.77,290.35L329.6,290.19L329.67,290.21L331.12,290.28L331.19,290.17L331.33,290.36L331.54,289.55L331.61,289.62L331.68,289.43L332.02,289.08L332.43,289.52L332.5,289.73L334.02,293.1L334.09,293.17L334.58,293.91L334.92,293.35L334.99,293.19L335.54,292.43L335.82,292.69L335.89,292.6L336.92,292.25L336.99,292.29L338.3,292.09L338.37,292.21L339.41,293.83L339.48,293.79L340.65,294.36L340.72,294.4L342.79,297.26L342.86,297.54L344.04,298.24L344.11,298.02L345.21,297.56L345.28,297.59L347.01,297.51L347.07,297.33L350.11,292.91L350.18,292.99L352.6,292.97L352.67,292.87L353.7,291.67L353.84,291.88L353.91,291.9L356.74,294.12L356.81,293.93L356.88,293.96L359.23,294.23L359.3,294.37L359.5,294.17L359.78,294.81L359.85,294.96L360.82,295.39L360.89,295.41L361.44,295.01L361.71,295.2L361.78,295.35L365.24,293.52L365.31,293.2L367.24,290.1L367.38,290.19L367.45,290.19L368.34,290.33L368.41,290.44L369.38,290.48L369.45,290.32L369.52,290.27L372.56,292.6L372.63,292.77L374.08,294.88L374.14,295.1L374.97,295.98L375.32,295.65L375.39,295.38L376.56,293.55L376.63,293.59L378.22,293.5L378.29,293.74L380.01,293.72L380.08,293.16L381.95,290.5L382.09,290.76L382.16,290.96L384.16,294.75L384.23,294.7L384.3,294.75L385.19,294.81L385.26,294.65L385.33,294.69L386.02,294.7L386.09,294.73L386.16,294.78L386.99,295.69L387.06,296.22L389.47,298.29L389.54,298.29L390.03,298.7L390.3,298.19L390.37,298.16L392.38,298.74L392.44,298.77L393.83,298.82L393.89,298.76L395.76,299.35L395.83,299.3L396.52,299.4L396.59,299.32L396.66,299.09L397.69,299.09L397.76,299.14L399.49,296.01L399.56,295.91L400.59,294.58L400.66,294.62L400.73,294.57L402.18,292.8L402.25,292.81L402.6,292.49L403.01,292.78L403.08,292.82L405.01,294.13L405.08,294.34L406.95,296.83L407.02,296.87L407.64,295.76L407.91,295.84L407.98,295.87L409.16,296.85L409.22,296.83L410.4,297L410.47,296.91L412.47,295.02L412.54,294.9L413.44,294.3L413.51,294.35L413.58,294.43L414.2,295.6L414.27,295.74L415.37,296.95L415.44,297L416.68,297.68L416.75,297.59L417.93,297.52L417.99,297.54L418.06,297.4L418.2,297.75L418.62,297.94L418.69,298.16L420.96,299.67L421.03,299.69L426.07,299.82L426.14,299.86L428.01,299.5L428.08,299.56L429.67,298.9L429.73,298.76L430.15,298.88L430.29,298.55L430.36,298.08L431.46,297.48L431.53,297.48L432.08,297.22L432.15,297.03L432.22,296.99L433.67,296.99L433.74,297.01L434.57,297.17L434.64,297.29L437.26,296.71L437.33,297.08L438.5,297.83L438.57,297.73L440.09,298.26L440.16,298.09L442.3,296.22L442.37,296.27L442.65,296.16L442.92,296.76L442.99,296.78L445.34,297.98L445.41,297.68L447.27,298.73L447.34,298.33L447.69,298.09L448.1,298.4L448.17,298.32L450.59,299.48L450.66,298.93L453.83,281.74L453.9,281.67L455.35,281.41L455.42,281.47L456.67,280.49L456.74,280.51L457.56,280.72L457.63,281.22L460.81,296.45L460.88,296.45L463.02,296.31L463.09,296.35L465.71,298.25L465.78,298.24L467.09,298.28L467.16,298.27L468.68,299.31L468.75,299.48L469.86,298.86L469.92,298.93L471.44,298.59L471.51,298.45L472.27,298.54L472.34,298.75L472.41,298.89L474.21,298.91L474.28,298.86L476.83,298.99L476.9,298.55L479.45,293.8L479.52,293.89L480.9,294.16L480.97,294.33L482.08,294.41L482.15,294.4L483.94,296.06L484.01,296.25L485.12,299.06L485.39,298.62L485.46,298.59L487.05,298.2L487.12,298.26L488.09,298L488.16,298.03L492.09,296.91L492.16,297.17L492.23,297.52L492.3,297.35L492.51,297.88L492.85,297.9L492.92,297.95L493.47,297.88L493.54,297.57L493.61,297.28L493.89,297.31L494.16,296.78L494.23,296.8L495.34,295.81L495.48,295.93L495.54,295.98L496.65,296.28L496.72,296.11L502.93,302.7L503,302.49L503.9,302.65L503.97,302.44L506.04,299.12L506.11,299.03L507.28,297.74L507.35,297.81L507.42,297.83L508.25,298.04L508.32,298.18L509.7,297.8L509.77,297.9L511.36,299.54L511.43,300.01L511.5,299.8L511.91,300.49L512.05,300.43L512.12,300.53L514.6,301.13L514.67,301.11L515.16,300.59L515.64,300.97L515.71,301.05L516.81,301.36L516.88,301.42L519.23,301.22L519.3,301.41L520.68,302.67L520.89,302.37L520.96,302.06L521.58,301.92L521.65,301.75L521.72,301.47L523.86,292.7L523.93,292.54L525.38,292.28L525.45,292.33L527.31,290.88L527.38,290.89L528.21,291.47L528.28,291.64L528.62,291.64L528.69,291.9L528.76,292.35L529.04,294.33L529.11,295.19L530.97,300.79L531.04,300.81L532.28,301.49L532.35,301.35L533.46,302.16L533.53,302.02L534.22,302.62L534.49,302.48L534.56,302.3L537.05,302.77L537.12,302.7L538.01,302.16L538.08,301.96L539.88,301.13L539.95,301.15L541.05,300.87L541.12,300.92L543.95,300.5L544.02,300.55L545.61,301.25L545.68,301.15L546.58,301.79L546.65,301.94L547.75,300.92L547.82,300.43L549.75,298.32L549.82,298.47L550.79,298.41L550.86,298.45L554.73,300.48L554.79,300.99L555.97,302.27L556.11,302.08L556.18,302.03L557.14,301.77L557.28,301.92L557.35,302.02L558.45,301.79L558.52,301.73L560.32,300.27L560.39,300.18L562.25,299.95L562.32,300.12L563.5,301.34L563.56,301.31L564.39,301.08L564.46,301.01L566.47,300.69L566.53,300.81L567.64,302.19L567.71,302.08L568.88,302.41L568.95,302.43L571.44,303.6L571.51,303.29L573.65,300.67L573.72,300.51L574.82,297.99L574.89,297.96L576.48,297.08L576.55,297.05L577.58,296.72L577.65,296.69L578.9,297.62L578.96,297.78L580,298.94" style="vector-effect: non-scaling-stroke; fill: none; stroke: rgb(31, 119, 180); stroke-opacity: 1; stroke-width: 2px; opacity: 1;"/></g><g class="points"/><g class="text"/></g></g></g><g class="overplot"/><path class="xlines-above crisp" d="M0,0" style="fill: none;"/><path class="ylines-above crisp" d="M0,0" style="fill: none;"/><g class="overlines-above"/><g class="xaxislayer-above"><g class="xtick"><text text-anchor="middle" x="0" y="403" transform="translate(60,0)" style="font-family: 'Open Sans', verdana, arial, sans-serif; font-size: 12px; fill: rgb(68, 68, 68); fill-opacity: 1; white-space: pre;">0</text></g><g class="xtick"><text text-anchor="middle" x="0" y="403" transform="translate(198.11,0)" style="font-family: 'Open Sans', verdana, arial, sans-serif; font-size: 12px; fill: rgb(68, 68, 68); fill-opacity: 1; white-space: pre;">2000</text></g><g class="xtick"><text text-anchor="middle" x="0" y="403" transform="translate(336.22,0)" style="font-family: 'Open Sans', verdana, arial, sans-serif; font-size: 12px; fill: rgb(68, 68, 68); fill-opacity: 1; white-space: pre;">4000</text></g><g class="xtick"><text text-anchor="middle" x="0" y="403" transform="translate(474.34,0)" style="font-family: 'Open Sans', verdana, arial, sans-serif; font-size: 12px; fill: rgb(68, 68, 68); fill-opacity: 1; white-space: pre;">6000</text></g><g class="xtick"><text text-anchor="middle" x="0" y="403" transform="translate(612.45,0)" style="font-family: 'Open Sans', verdana, arial, sans-serif; font-size: 12px; fill: rgb(68, 68, 68); fill-opacity: 1; white-space: pre;">8000</text></g></g><g class="yaxislayer-above"><g class="ytick"><text text-anchor="end" x="59" y="4.199999999999999" transform="translate(0,373.5)" style="font-family: 'Open Sans', verdana, arial, sans-serif; font-size: 12px; fill: rgb(68, 68, 68); fill-opacity: 1; white-space: pre;">0</text></g><g class="ytick"><text text-anchor="end" x="59" y="4.199999999999999" transform="translate(0,295.68)" style="font-family: 'Open Sans', verdana, arial, sans-serif; font-size: 12px; fill: rgb(68, 68, 68); fill-opacity: 1; white-space: pre;">0.5</text></g><g class="ytick"><text text-anchor="end" x="59" y="4.199999999999999" transform="translate(0,217.85)" style="font-family: 'Open Sans', verdana, arial, sans-serif; font-size: 12px; fill: rgb(68, 68, 68); fill-opacity: 1; white-space: pre;">1</text></g><g class="ytick"><text text-anchor="end" x="59" y="4.199999999999999" transform="translate(0,140.03)" style="font-family: 'Open Sans', verdana, arial, sans-serif; font-size: 12px; fill: rgb(68, 68, 68); fill-opacity: 1; white-space: pre;">1.5</text></g><g class="ytick"><text text-anchor="end" x="59" y="4.199999999999999" transform="translate(0,62.21)" style="font-family: 'Open Sans', verdana, arial, sans-serif; font-size: 12px; fill: rgb(68, 68, 68); fill-opacity: 1; white-space: pre;">2</text></g></g><g class="overaxes-above"/></g></g><g class="polarlayer"/><g class="ternarylayer"/><g class="geolayer"/><g class="pielayer"/><g class="glimages"/><defs id="topdefs-ae94e1"><g class="clips"/></defs><g class="layer-above"><g class="imagelayer"/><g class="shapelayer"/></g><g class="infolayer"><g class="g-gtitle"><text class="gtitle" x="350" y="30" text-anchor="middle" dy="0em" style="font-family: 'Open Sans', verdana, arial, sans-serif; font-size: 17px; fill: rgb(68, 68, 68); opacity: 1; font-weight: normal; white-space: pre;">Training loss</text></g><g class="g-xtitle"><text class="xtitle" x="350" y="442" text-anchor="middle" style="font-family: 'Open Sans', verdana, arial, sans-serif; font-size: 14px; fill: rgb(68, 68, 68); opacity: 1; font-weight: normal; white-space: pre;">Iterations</text></g><g class="g-ytitle"><text class="ytitle" transform="rotate(-90,22,225)" x="22" y="225" text-anchor="middle" style="font-family: 'Open Sans', verdana, arial, sans-serif; font-size: 14px; fill: rgb(68, 68, 68); opacity: 1; font-weight: normal; white-space: pre;">Loss</text></g></g></svg>