<svg class="main-svg" xmlns="http://www.w3.org/2000/svg" xmlns:xlink="http://www.w3.org/1999/xlink" width="700" height="450" style="" viewBox="0 0 700 450"><rect x="0" y="0" width="700" height="450" style="fill: rgb(255, 255, 255); fill-opacity: 1;"/><defs id="defs-fbc83f"><g class="clips"><clipPath id="clipfbc83fxyplot" class="plotclip"><rect width="580" height="330"/></clipPath><clipPath class="axesclip" id="clipfbc83fx"><rect x="60" y="0" width="580" height="450"/></clipPath><clipPath class="axesclip" id="clipfbc83fy"><rect x="0" y="60" width="700" height="330"/></clipPath><clipPath class="axesclip" id="clipfbc83fxy"><rect x="60" y="60" width="580" height="330"/></clipPath></g><g class="gradients"/></defs><g class="bglayer"/><g class="layer-below"><g class="imagelayer"/><g class="shapelayer"/></g><g class="cartesianlayer"><g class="subplot xy"><g class="layer-subplot"><g class="shapelayer"/><g class="imagelayer"/></g><g class="gridlayer"><g class="x"><path class="xgrid crisp" transform="translate(194.92,0)" d="M0,60v330" style="stroke: rgb(238, 238, 238); stroke-opacity: 1; stroke-width: 1px;"/><path class="xgrid crisp" transform="translate(329.83,0)" d="M0,60v330" style="stroke: rgb(238, 238, 238); stroke-opacity: 1; stroke-width: 1px;"/><path class="xgrid crisp" transform="translate(464.75,0)" d="M0,60v330" style="stroke: rgb(238, 238, 238); stroke-opacity: 1; stroke-width: 1px;"/><path class="xgrid crisp" transform="translate(599.66,0)" d="M0,60v330" style="stroke: rgb(238, 238, 238); stroke-opacity: 1; stroke-width: 1px;"/></g><g class="y"><path class="ygrid crisp" transform="translate(0,306.61)" d="M60,0h580" style="stroke: rgb(238, 238, 238); stroke-opacity: 1; stroke-width: 1px;"/><path class="ygrid crisp" transform="translate(0,239.73)" d="M60,0h580" style="stroke: rgb(238, 238, 238); stroke-opacity: 1; stroke-width: 1px;"/><path class="ygrid crisp" transform="translate(0,172.84)" d="M60,0h580" style="stroke: rgb(238, 238, 238); stroke-opacity: 1; stroke-width: 1px;"/><path class="ygrid crisp" transform="translate(0,105.95)" d="M60,0h580" style="stroke: rgb(238, 238, 238); stroke-opacity: 1; stroke-width: 1px;"/></g></g><g class="zerolinelayer"><path class="xzl zl crisp" transform="translate(60,0)" d="M0,60v330" style="stroke: rgb(68, 68, 68); stroke-opacity: 1; stroke-width: 1px;"/><path class="yzl zl crisp" transform="translate(0,373.5)" d="M60,0h580" style="stroke: rgb(68, 68, 68); stroke-opacity: 1; stroke-width: 1px;"/></g><path class="xlines-below"/><path class="ylines-below"/><g class="overlines-below"/><g class="xaxislayer-below"/><g class="yaxislayer-below"/><g class="overaxes-below"/><g class="plot" transform="translate(60, 60)" clip-path="url(#clipfbc83fxyplot)"><g class="scatterlayer mlayer"><g class="trace scatter trace9ca885" style="stroke-miterlimit: 2; opacity: 1;"><g class="fills"/><g class="errorbars"/><g class="lines"><path class="js-line" d="M0,313.5L0.94,44.53L1.08,40.37L2.43,23.42L2.56,22.72L4.32,18.11L4.45,17.93L6.21,16.95L6.34,16.97L8.77,17.18L8.9,17.23L13.49,19.31L13.63,16.5L26.31,37.97L26.44,38.37L27.39,40.2L27.52,40.43L35.75,57.96L35.89,58.17L38.72,63.68L38.86,64.04L40.61,65.83L40.74,65.97L41.96,67.17L42.09,67.35L48.03,72.01L48.16,71.91L49.92,72.57L50.05,72.16L52.08,73.24L52.21,73.07L53.16,73.33L53.29,73.45L54.37,74.15L54.51,74.1L55.32,74.58L55.45,74.46L55.59,74.14L59.5,76.02L59.63,75.81L61.52,75.8L61.66,75.85L62.87,76.6L63.01,76.42L64.62,77.89L64.76,77.58L64.89,77.61L65.84,77.43L65.97,77.33L66.92,77.12L67.05,77.53L68.67,78.04L68.81,78.13L70.29,78.45L70.43,78.77L71.64,78.47L71.77,78.29L72.18,77.86L72.58,78.18L72.72,78.52L73.53,79L73.66,78.91L73.8,78.59L74.88,79.34L75.01,79.1L75.96,79.66L76.09,79.58L77.85,79.96L77.98,79.84L78.66,79.62L78.79,79.74L78.93,79.71L79.87,80.86L80,80.79L80.14,80.68L80.95,80.39L81.08,80.38L82.57,80.48L82.7,80.39L83.11,80.35L83.24,80.61L83.38,81.01L83.92,81.35L84.19,80.98L84.32,80.95L86.21,81.42L86.35,81.27L86.48,81.12L86.89,81.54L87.02,81.89L87.16,81.64L87.69,82.19L87.83,82.42L88.5,82.7L88.64,83.19L88.77,82.99L89.04,83.54L89.18,83.37L89.31,83.62L92.42,82.63L92.55,82.49L93.5,82.63L93.63,82.9L95.65,84.76L95.79,84.6L97.27,84.07L97.41,84.2L98.35,83.9L98.49,84.18L99.84,85.82L99.97,85.9L103.08,84.12L103.21,84.17L104.83,85.45L104.96,85.49L106.18,86.84L106.31,86.62L107.12,87.36L107.39,87.19L107.53,87.15L107.66,86.88L108.07,87.24L108.2,87.52L109.01,87.28L109.15,87.25L109.69,87.24L109.82,87.65L112.92,89.89L113.06,89.67L113.19,89.4L113.73,89.76L113.87,89.88L115.35,90.17L115.49,90.37L116.7,91.38L116.84,91.36L118.19,92.03L118.32,92.03L119.67,92.58L119.8,92.58L121.69,93.76L121.83,93.54L124.26,94.65L124.39,94.53L125.07,95.05L125.2,95.19L126.69,96.47L126.82,96.57L130.19,98.54L130.33,98.31L132.76,101.01L132.89,100.69L134.11,101.69L134.24,101.48L134.78,101.06L135.05,101.42L135.18,101.75L137.61,104.44L137.75,104.31L137.88,104.39L139.91,106.46L140.04,106.36L140.58,106.56L140.72,106.84L141.53,108.06L141.66,108.32L142.74,109.21L142.88,109.12L143.01,109.16L144.9,110.64L145.03,110.42L145.17,110.31L150.03,114.9L150.16,114.92L151.51,115.68L151.64,115.79L153.13,116.53L153.26,116.2L154.88,117.17L155.02,117.35L155.69,117.89L155.83,118.33L156.91,119.43L157.04,119.4L159.33,122.12L159.47,122.11L162.3,123.79L162.44,123.79L164.33,125.72L164.46,125.62L165.41,126.24L165.54,126.16L168.24,129.6L168.37,129.43L169.32,130.39L169.45,130.26L169.59,130.14L171.61,131.61L171.75,131.31L171.88,131.32L174.85,134.08L174.98,133.94L179.71,137.84L179.84,137.84L181.06,138.8L181.19,138.81L183.35,139.29L183.48,139.4L187.4,143.08L187.53,143.33L188.48,143.62L188.61,143.95L189.69,144.59L189.96,144.09L190.1,143.9L190.77,144.3L190.9,144.57L192.93,146.1L193.06,145.97L195.36,147.42L195.49,147.79L197.79,149.18L197.92,149.55L199.54,150.23L199.67,150.1L200.35,150.15L200.48,150.3L202.1,151.11L202.24,151.08L208.17,155.5L208.31,155.65L209.25,155.92L209.39,156.07L210.47,156.47L210.6,156.27L211.55,155.88L211.68,156L212.36,156.43L212.49,156.57L212.9,156.54L213.17,156.93L213.3,157.08L214.92,158.28L215.05,158.05L216.13,158.56L216.27,158.54L217.75,159.96L217.89,159.87L218.97,160.09L219.1,160.06L224.23,162.95L224.36,163.35L225.04,163.93L225.17,163.71L225.31,163.64L226.12,163.63L226.25,163.73L227.2,163.83L227.33,163.89L228.14,164.13L228.28,164.21L228.95,164.44L229.09,164.83L230.84,165.71L230.97,165.71L231.38,165.66L231.51,166.02L231.65,166.16L232.05,165.79L232.32,166.09L232.46,166.42L237.05,167.6L237.18,167.9L238.26,167.75L238.39,167.88L241.5,169.38L241.63,169.37L243.12,169.69L243.25,169.62L245.82,171.22L245.95,170.98L246.09,170.67L248.11,172.38L248.24,172.36L250,173.14L250.13,173.35L251.21,173.59L251.35,173.58L252.29,174.08L252.43,174.35L256.2,175.12L256.34,174.96L257.42,175.43L257.55,175.35L258.63,175.08L258.77,175.24L259.44,175.48L259.58,176.01L260.66,177.05L260.79,177.13L261.47,177.11L261.6,176.82L262.27,177.08L262.41,177.31L264.57,177.76L264.7,177.52L266.05,178.21L266.19,178.07L267.54,178.83L267.67,178.77L273.88,181.8L274.01,181.67L275.09,181.89L275.23,182.07L276.31,181.91L276.44,181.96L280.22,183.89L280.35,183.66L282.11,184.37L282.24,184.45L285.08,185.06L285.21,185.17L286.56,185.15L286.69,185.11L291.55,187.02L291.69,187L294.38,186.92L294.52,187.06L297.35,189.09L297.49,188.88L298.16,189.41L298.43,189.03L298.57,189.1L299.78,189.25L299.92,189.45L301.4,190.28L301.54,190.15L305.72,191.62L305.85,191.77L308.01,193.17L308.15,193.04L309.09,192.56L309.23,192.63L310.71,192.79L310.84,192.63L311.38,192.73L311.52,193.1L313.27,194.11L313.41,194.22L315.03,194.75L315.16,194.78L315.97,195.04L316.11,195.06L317.99,195.35L318.13,195.45L318.94,195.61L319.07,195.88L319.88,195.76L320.02,195.77L323.39,196.99L323.53,197.04L323.93,197.22L324.07,197.41L324.2,197.51L324.47,197.96L324.88,197.46L325.01,197.43L325.69,197.18L325.82,197.46L325.95,197.39L326.09,197.13L326.63,197.56L326.76,197.62L327.71,197.69L327.84,197.73L330.68,198.62L330.81,198.54L332.43,199.61L332.57,199.66L332.84,199.09L333.24,199.81L333.38,199.92L334.59,200.4L334.72,200.19L335.67,200.19L335.8,200.29L336.88,200L337.02,200.23L337.15,200.09L337.69,200.61L337.83,200.73L338.37,200.68L338.5,200.92L338.64,201.16L339.99,201.92L340.12,202.02L342.14,201.67L342.28,201.66L344.3,202.46L344.44,202.53L345.79,202.7L345.92,202.68L347.14,202.51L347.27,202.7L348.49,203.28L348.62,203.38L349.83,204.06L349.97,204.07L351.59,204.44L351.72,204.32L352.8,204.22L352.94,204.2L354.15,204.39L354.29,204.45L356.31,205.1L356.45,204.91L358.74,205.77L358.87,205.89L359.68,206.27L359.82,206.25L362.52,206.59L362.65,206.67L363.73,206.54L363.87,206.54L364.95,206.66L365.08,206.85L366.56,207.42L366.7,207.32L366.97,207.04L367.51,207.36L367.64,207.23L369.94,208.06L370.07,208.29L374.66,209.57L374.79,209.46L375.87,209.44L376.01,209.4L379.79,210.33L379.92,210.41L382.62,211.06L382.75,211.02L384.37,210.11L384.51,209.97L385.99,210.54L386.13,210.55L387.21,210.5L387.34,210.76L388.15,211.24L388.29,211.25L390.58,212.41L390.71,212.14L391.25,212.28L391.39,212.42L391.52,212.43L397.59,213.13L397.73,213.54L398.27,213.92L398.54,213.59L398.67,213.47L399.89,213.54L400.02,213.63L410.68,214.43L410.82,214.56L411.63,214.57L411.76,214.77L413.51,215.55L413.65,215.33L417.16,215.86L417.29,215.77L418.37,215.35L418.64,215.79L418.78,215.84L419.59,216.19L419.72,216.03L419.86,216.02L420.8,216.13L420.94,216.23L422.15,216.41L422.28,216.34L424.31,216.94L424.44,216.74L425.12,216.8L425.25,216.67L425.39,216.43L426.74,216.37L426.87,216.55L427.82,216.87L427.95,216.69L430.11,216.02L430.24,216.33L431.59,217.16L431.73,217.38L432.81,217.7L432.94,217.52L433.08,217.72L433.35,217.09L433.48,217.08L433.62,217.04L436.32,218L436.45,218.01L440.77,218L440.9,217.84L444.14,219.06L444.28,219.06L445.22,218.78L445.35,218.67L446.3,218.46L446.43,218.48L447.78,218.67L447.92,218.75L449.4,218.12L449.54,218.23L453.04,218.77L453.18,219.06L454.8,219.34L454.93,219.2L455.88,219.41L456.01,219.23L458.17,218.78L458.31,218.83L459.39,219.24L459.52,219.18L461.14,219.73L461.27,219.78L463.03,220.68L463.16,220.57L467.75,219.94L467.89,220.23L468.56,220.42L468.7,220.29L468.83,220.14L469.77,219.98L469.91,220.18L471.26,220.24L471.39,220.38L473.82,221.07L473.96,221.02L474.77,220.97L474.9,221.02L476.39,220.51L476.52,220.63L478.68,220.7L478.81,220.88L480.16,221.64L480.3,221.36L481.78,220.95L481.92,220.95L484.48,221.54L484.62,221.73L485.83,221.37L485.96,221.52L488.26,221.69L488.39,221.77L492.31,222.52L492.44,222.33L493.79,222.05L493.92,222.29L494.73,222.52L494.87,222.37L495,222.43L500.13,223.04L500.27,223.26L501.21,222.46L501.34,222.62L501.48,222.61L504.18,221.95L504.31,222.17L506.2,222.55L506.34,222.78L508.36,221.98L508.49,222.04L512.27,223.18L512.41,223.14L513.22,222.84L513.35,222.99L513.49,223.01L514.7,223.33L514.84,223.42L518.75,223.57L518.88,223.68L519.56,223.76L519.69,223.58L519.83,223.56L523.2,224L523.34,223.8L524.28,223.82L524.41,223.72L526.03,224.07L526.17,224.1L527.92,223.41L528.06,223.67L529.14,223.86L529.27,223.55L529.54,223.18L530.08,223.58L530.22,223.57L533.86,224.02L533.99,223.82L535.21,224.02L535.34,224.06L536.42,224.34L536.56,224.2L542.22,224.21L542.36,224.43L543.17,224.68L543.3,224.82L545.06,224.98L545.19,224.77L546.95,224.7L547.08,224.6L548.43,224.46L548.56,224.65L550.05,224.62L550.18,224.97L551.4,224.86L551.53,225.04L552.75,225.12L552.88,225.06L553.83,224.89L553.96,224.78L556.12,225.25L556.25,225.41L557.33,225.34L557.47,225.37L558.41,225.25L558.55,225.44L559.22,225.64L559.36,225.7L563.68,225.47L563.81,225.41L565.02,225.75L565.16,225.57L565.97,225.66L566.1,225.67L566.51,225.69L566.78,225.39L566.91,225.41L568.4,225.99L568.53,225.83L570.29,225.99L570.42,225.75L572.17,225.54L572.31,225.6L573.25,224.95L573.39,225.28L573.52,225.13L574.06,225.62L574.2,225.63L580,225.98" style="vector-effect: non-scaling-stroke; fill: none; stroke: rgb(31, 119, 180); stroke-opacity: 1; stroke-width: 2px; opacity: 1;"/></g><g class="points"/><g class="text"/></g></g></g><g class="overplot"/><path class="xlines-above crisp" d="M0,0" style="fill: none;"/><path class="ylines-above crisp" d="M0,0" style="fill: none;"/><g class="overlines-above"/><g class="xaxislayer-above"><g class="xtick"><text text-anchor="middle" x="0" y="403" transform="translate(60,0)" style="font-family: 'Open Sans', verdana, arial, sans-serif; font-size: 12px; fill: rgb(68, 68, 68); fill-opacity: 1; white-space: pre;">0</text></g><g class="xtick"><text text-anchor="middle" x="0" y="403" transform="translate(194.92,0)" style="font-family: 'Open Sans', verdana, arial, sans-serif; font-size: 12px; fill: rgb(68, 68, 68); fill-opacity: 1; white-space: pre;">1000</text></g><g class="xtick"><text text-anchor="middle" x="0" y="403" transform="translate(329.83,0)" style="font-family: 'Open Sans', verdana, arial, sans-serif; font-size: 12px; fill: rgb(68, 68, 68); fill-opacity: 1; white-space: pre;">2000</text></g><g class="xtick"><text text-anchor="middle" x="0" y="403" transform="translate(464.75,0)" style="font-family: 'Open Sans', verdana, arial, sans-serif; font-size: 12px; fill: rgb(68, 68, 68); fill-opacity: 1; white-space: pre;">3000</text></g><g class="xtick"><text text-anchor="middle" x="0" y="403" transform="translate(599.66,0)" style="font-family: 'Open Sans', verdana, arial, sans-serif; font-size: 12px; fill: rgb(68, 68, 68); fill-opacity: 1; white-space: pre;">4000</text></g></g><g class="yaxislayer-above"><g class="ytick"><text text-anchor="end" x="59" y="4.199999999999999" transform="translate(0,373.5)" style="font-family: 'Open Sans', verdana, arial, sans-serif; font-size: 12px; fill: rgb(68, 68, 68); fill-opacity: 1; white-space: pre;">0</text></g><g class="ytick"><text text-anchor="end" x="59" y="4.199999999999999" transform="translate(0,306.61)" style="font-family: 'Open Sans', verdana, arial, sans-serif; font-size: 12px; fill: rgb(68, 68, 68); fill-opacity: 1; white-space: pre;">0.5</text></g><g class="ytick"><text text-anchor="end" x="59" y="4.199999999999999" transform="translate(0,239.73)" style="font-family: 'Open Sans', verdana, arial, sans-serif; font-size: 12px; fill: rgb(68, 68, 68); fill-opacity: 1; white-space: pre;">1</text></g><g class="ytick"><text text-anchor="end" x="59" y="4.199999999999999" transform="translate(0,172.84)" style="font-family: 'Open Sans', verdana, arial, sans-serif; font-size: 12px; fill: rgb(68, 68, 68); fill-opacity: 1; white-space: pre;">1.5</text></g><g class="ytick"><text text-anchor="end" x="59" y="4.199999999999999" transform="translate(0,105.95)" style="font-family: 'Open Sans', verdana, arial, sans-serif; font-size: 12px; fill: rgb(68, 68, 68); fill-opacity: 1; white-space: pre;">2</text></g></g><g class="overaxes-above"/></g></g><g class="polarlayer"/><g class="ternarylayer"/><g class="geolayer"/><g class="pielayer"/><g class="glimages"/><defs id="topdefs-fbc83f"><g class="clips"/></defs><g class="layer-above"><g class="imagelayer"/><g class="shapelayer"/></g><g class="infolayer"><g class="g-gtitle"><text class="gtitle" x="350" y="30" text-anchor="middle" dy="0em" style="font-family: 'Open Sans', verdana, arial, sans-serif; font-size: 17px; fill: rgb(68, 68, 68); opacity: 1; font-weight: normal; white-space: pre;">Training loss</text></g><g class="g-xtitle"><text class="xtitle" x="350" y="442" text-anchor="middle" style="font-family: 'Open Sans', verdana, arial, sans-serif; font-size: 14px; fill: rgb(68, 68, 68); opacity: 1; font-weight: normal; white-space: pre;">Iterations</text></g><g class="g-ytitle"><text class="ytitle" transform="rotate(-90,22,225)" x="22" y="225" text-anchor="middle" style="font-family: 'Open Sans', verdana, arial, sans-serif; font-size: 14px; fill: rgb(68, 68, 68); opacity: 1; font-weight: normal; white-space: pre;">Loss</text></g></g></svg>