<svg class="main-svg" xmlns="http://www.w3.org/2000/svg" xmlns:xlink="http://www.w3.org/1999/xlink" width="700" height="450" style="" viewBox="0 0 700 450"><rect x="0" y="0" width="700" height="450" style="fill: rgb(255, 255, 255); fill-opacity: 1;"/><defs id="defs-9da6b6"><g class="clips"><clipPath id="clip9da6b6xyplot" class="plotclip"><rect width="580" height="330"/></clipPath><clipPath class="axesclip" id="clip9da6b6x"><rect x="60" y="0" width="580" height="450"/></clipPath><clipPath class="axesclip" id="clip9da6b6y"><rect x="0" y="60" width="700" height="330"/></clipPath><clipPath class="axesclip" id="clip9da6b6xy"><rect x="60" y="60" width="580" height="330"/></clipPath></g><g class="gradients"/></defs><g class="bglayer"><rect class="bg" x="60" y="60" width="580" height="330" style="fill: rgb(255, 255, 255); fill-opacity: 1; stroke-width: 0;"/></g><g class="layer-below"><g class="imagelayer"/><g class="shapelayer"/></g><g class="cartesianlayer"><g class="subplot xy"><g class="layer-subplot"><g class="shapelayer"/><g class="imagelayer"/></g><g class="gridlayer"><g class="x"><path class="xgrid crisp" d="M0,60v330" transform="translate(189.03,0)" style="stroke: rgb(238, 238, 238); stroke-opacity: 1; stroke-width: 1px;"/><path class="xgrid crisp" d="M0,60v330" transform="translate(318.06,0)" style="stroke: rgb(238, 238, 238); stroke-opacity: 1; stroke-width: 1px;"/><path class="xgrid crisp" d="M0,60v330" transform="translate(447.1,0)" style="stroke: rgb(238, 238, 238); stroke-opacity: 1; stroke-width: 1px;"/><path class="xgrid crisp" d="M0,60v330" transform="translate(576.13,0)" style="stroke: rgb(238, 238, 238); stroke-opacity: 1; stroke-width: 1px;"/></g><g class="y"><path class="ygrid crisp" d="M60,0h580" transform="translate(0,296.32)" style="stroke: rgb(238, 238, 238); stroke-opacity: 1; stroke-width: 1px;"/><path class="ygrid crisp" d="M60,0h580" transform="translate(0,219.14)" style="stroke: rgb(238, 238, 238); stroke-opacity: 1; stroke-width: 1px;"/><path class="ygrid crisp" d="M60,0h580" transform="translate(0,141.95999999999998)" style="stroke: rgb(238, 238, 238); stroke-opacity: 1; stroke-width: 1px;"/><path class="ygrid crisp" d="M60,0h580" transform="translate(0,64.78)" style="stroke: rgb(238, 238, 238); stroke-opacity: 1; stroke-width: 1px;"/></g></g><g class="zerolinelayer"><path class="xzl zl crisp" d="M0,60v330" transform="translate(60,0)" style="stroke: rgb(68, 68, 68); stroke-opacity: 1; stroke-width: 1px;"/><path class="yzl zl crisp" d="M60,0h580" transform="translate(0,373.5)" style="stroke: rgb(68, 68, 68); stroke-opacity: 1; stroke-width: 1px;"/></g><path class="xlines-below"/><path class="ylines-below"/><g class="overlines-below"/><g class="xaxislayer-below"/><g class="yaxislayer-below"/><g class="overaxes-below"/><g class="plot" transform="translate(60, 60)" clip-path="url(#clip9da6b6xyplot)"><g class="scatterlayer mlayer"><g class="trace scatter trace3e4302" style="stroke-miterlimit: 2; opacity: 1;"><g class="fills"/><g class="errorbars"/><g class="lines"><path class="js-line" d="M0,313.5L1.29,90.09L1.94,61.84L2.58,61.43L3.23,16.5L4.52,28.65L5.16,28.48L6.45,27.64L7.1,28.99L9.68,43.67L10.32,48.49L14.84,79L15.48,81.84L21.94,104.77L22.58,106.63L25.16,114.1L25.81,115.74L30.32,127.13L30.97,128.76L36.77,140.56L37.42,141.55L41.94,149.29L42.58,150.3L45.16,153.04L45.81,153.75L51.61,158.79L52.26,159.33L58.06,164.32L58.71,165.04L61.94,166.74L62.58,167.17L64.52,168.64L65.16,167.85L69.68,184.05L70.32,186.04L74.19,196.11L74.84,197.11L78.71,200L79.35,200.61L85.81,206.43L86.45,206.82L88.39,207.99L89.03,208.45L104.52,214.72L105.16,214.71L110.32,217.14L110.97,217.17L112.9,218.15L113.55,217.77L114.84,218.26L115.48,218.95L132.26,225.62L132.9,225.69L136.13,226.87L136.77,226.93L138.06,227.35L138.71,227.2L147.74,232.91L148.39,233.18L149.68,233.82L150.32,234.04L158.06,238.33L158.71,238.52L160.65,238.69L161.29,238.84L167.1,240.61L167.74,240.65L171.61,240.49L172.26,240.18L174.19,239.67L174.84,239.66L177.42,239.31L178.06,239.57L180.65,240.02L181.29,239.98L186.45,240.42L187.1,240.55L190.97,241.09L191.61,240.97L195.48,242.03L196.13,241.92L198.06,241.82L198.71,241.56L203.87,242.16L204.52,242.33L214.19,242.3L214.84,242.51L221.29,243.26L221.94,243.14L230.97,244.29L231.61,244.6L232.9,244.69L233.55,244.89L234.84,245.31L235.48,246.06L237.42,246.51L238.06,247.02L243.87,249.05L244.52,249.63L246.45,249.79L247.1,249.77L260.65,251.08L261.29,251.31L262.58,251.35L263.23,251.5L265.81,252.17L266.45,251.9L268.39,250.98L269.03,251.07L272.9,251.17L273.55,251.2L275.48,250.9L276.13,250.71L280,250.89L280.65,250.82L283.87,250.2L284.52,250.16L286.45,249.95L287.1,249.86L290.32,249.12L290.97,249.29L300,249.34L300.65,249.45L309.68,251.14L310.32,250.81L314.19,252.65L314.84,252.68L330.97,254.41L331.61,254.89L335.48,256.57L336.13,256.49L341.29,258.43L341.94,258.29L345.81,258.11L346.45,258.22L349.68,257.44L350.32,257.9L363.23,259.28L363.87,258.92L371.61,258.73L372.26,258.85L376.77,259.63L377.42,259.65L383.23,259.55L383.87,259.63L386.45,259.71L387.1,259.79L396.13,261.68L396.77,261.72L407.1,261.57L407.74,261.81L412.26,262.9L412.9,263.47L414.84,264.44L415.48,264.26L423.87,265.72L424.52,265.35L430.32,265.6L430.97,265.45L435.48,265.23L436.13,265.24L442.58,263.95L443.23,264.14L465.16,265.88L465.81,266.11L469.03,266.28L469.68,266.54L473.55,266.77L474.19,266.99L475.48,266.88L476.13,267.42L478.06,267.73L478.71,267.59L485.81,267.31L486.45,267.21L494.19,265.88L494.84,266.26L498.06,266.94L498.71,267.14L503.23,267.1L503.87,267.2L506.45,267.23L507.1,267.57L509.03,268.04L509.68,268.15L512.9,268.64L513.55,268.53L515.48,268.64L516.13,268.39L529.68,269.03L530.32,268.94L532.26,268.75L532.9,268.82L540,266.88L540.65,266.66L543.23,265.81L543.87,265.8L546.45,265.9L547.1,265.88L552.26,267.18L552.9,268.06L556.13,270.09L556.77,270.24L563.23,272.49L563.87,272.35L572.9,273.16L573.55,273.12L578.71,272.52L579.35,272.13L580,272.02" style="vector-effect: non-scaling-stroke; fill: none; stroke: rgb(31, 119, 180); stroke-opacity: 1; stroke-width: 2px; opacity: 1;"/></g><g class="points"/><g class="text"/></g></g></g><g class="overplot"/><path class="xlines-above crisp" d="M0,0" style="fill: none;"/><path class="ylines-above crisp" d="M0,0" style="fill: none;"/><g class="overlines-above"/><g class="xaxislayer-above"><g class="xtick"><text text-anchor="middle" x="0" y="403" transform="translate(60,0)" style="font-family: 'Open Sans', verdana, arial, sans-serif; font-size: 12px; fill: rgb(68, 68, 68); fill-opacity: 1; white-space: pre;">0</text></g><g class="xtick"><text text-anchor="middle" x="0" y="403" transform="translate(189.03,0)" style="font-family: 'Open Sans', verdana, arial, sans-serif; font-size: 12px; fill: rgb(68, 68, 68); fill-opacity: 1; white-space: pre;">200</text></g><g class="xtick"><text text-anchor="middle" x="0" y="403" transform="translate(318.06,0)" style="font-family: 'Open Sans', verdana, arial, sans-serif; font-size: 12px; fill: rgb(68, 68, 68); fill-opacity: 1; white-space: pre;">400</text></g><g class="xtick"><text text-anchor="middle" x="0" y="403" transform="translate(447.1,0)" style="font-family: 'Open Sans', verdana, arial, sans-serif; font-size: 12px; fill: rgb(68, 68, 68); fill-opacity: 1; white-space: pre;">600</text></g><g class="xtick"><text text-anchor="middle" x="0" y="403" transform="translate(576.13,0)" style="font-family: 'Open Sans', verdana, arial, sans-serif; font-size: 12px; fill: rgb(68, 68, 68); fill-opacity: 1; white-space: pre;">800</text></g></g><g class="yaxislayer-above"><g class="ytick"><text text-anchor="end" x="59" y="4.199999999999999" transform="translate(0,373.5)" style="font-family: 'Open Sans', verdana, arial, sans-serif; font-size: 12px; fill: rgb(68, 68, 68); fill-opacity: 1; white-space: pre;">0</text></g><g class="ytick"><text text-anchor="end" x="59" y="4.199999999999999" transform="translate(0,296.32)" style="font-family: 'Open Sans', verdana, arial, sans-serif; font-size: 12px; fill: rgb(68, 68, 68); fill-opacity: 1; white-space: pre;">0.5</text></g><g class="ytick"><text text-anchor="end" x="59" y="4.199999999999999" transform="translate(0,219.14)" style="font-family: 'Open Sans', verdana, arial, sans-serif; font-size: 12px; fill: rgb(68, 68, 68); fill-opacity: 1; white-space: pre;">1</text></g><g class="ytick"><text text-anchor="end" x="59" y="4.199999999999999" transform="translate(0,141.95999999999998)" style="font-family: 'Open Sans', verdana, arial, sans-serif; font-size: 12px; fill: rgb(68, 68, 68); fill-opacity: 1; white-space: pre;">1.5</text></g><g class="ytick"><text text-anchor="end" x="59" y="4.199999999999999" transform="translate(0,64.78)" style="font-family: 'Open Sans', verdana, arial, sans-serif; font-size: 12px; fill: rgb(68, 68, 68); fill-opacity: 1; white-space: pre;">2</text></g></g><g class="overaxes-above"/></g></g><g class="polarlayer"/><g class="ternarylayer"/><g class="geolayer"/><g class="pielayer"/><g class="glimages"/><defs id="topdefs-9da6b6"><g class="clips"/></defs><g class="layer-above"><g class="imagelayer"/><g class="shapelayer"/></g><g class="infolayer"><g class="g-gtitle"><text class="gtitle" x="350" y="30" text-anchor="middle" style="font-family: 'Open Sans', verdana, arial, sans-serif; font-size: 17px; fill: rgb(68, 68, 68); opacity: 1; font-weight: normal; white-space: pre;">Training loss</text></g><g class="g-xtitle"><text class="xtitle" x="350" y="442" text-anchor="middle" style="font-family: 'Open Sans', verdana, arial, sans-serif; font-size: 14px; fill: rgb(68, 68, 68); opacity: 1; font-weight: normal; white-space: pre;">Iterations</text></g><g class="g-ytitle"><text class="ytitle" transform="rotate(-90,22,225)" x="22" y="225" text-anchor="middle" style="font-family: 'Open Sans', verdana, arial, sans-serif; font-size: 14px; fill: rgb(68, 68, 68); opacity: 1; font-weight: normal; white-space: pre;">Loss</text></g></g></svg>