<svg class="main-svg" xmlns="http://www.w3.org/2000/svg" xmlns:xlink="http://www.w3.org/1999/xlink" width="700" height="450" style="" viewBox="0 0 700 450"><rect x="0" y="0" width="700" height="450" style="fill: rgb(255, 255, 255); fill-opacity: 1;"/><defs id="defs-4a5a14"><g class="clips"><clipPath id="clip4a5a14xyplot" class="plotclip"><rect width="580" height="330"/></clipPath><clipPath class="axesclip" id="clip4a5a14x"><rect x="60" y="0" width="580" height="450"/></clipPath><clipPath class="axesclip" id="clip4a5a14y"><rect x="0" y="60" width="700" height="330"/></clipPath><clipPath class="axesclip" id="clip4a5a14xy"><rect x="60" y="60" width="580" height="330"/></clipPath></g><g class="gradients"/></defs><g class="bglayer"><rect class="bg" x="60" y="60" width="580" height="330" style="fill: rgb(255, 255, 255); fill-opacity: 1; stroke-width: 0;"/></g><g class="layer-below"><g class="imagelayer"/><g class="shapelayer"/></g><g class="cartesianlayer"><g class="subplot xy"><g class="layer-subplot"><g class="shapelayer"/><g class="imagelayer"/></g><g class="gridlayer"><g class="x"><path class="xgrid crisp" d="M0,60v330" transform="translate(205.07,0)" style="stroke: rgb(238, 238, 238); stroke-opacity: 1; stroke-width: 1px;"/><path class="xgrid crisp" d="M0,60v330" transform="translate(350.15,0)" style="stroke: rgb(238, 238, 238); stroke-opacity: 1; stroke-width: 1px;"/><path class="xgrid crisp" d="M0,60v330" transform="translate(495.22,0)" style="stroke: rgb(238, 238, 238); stroke-opacity: 1; stroke-width: 1px;"/></g><g class="y"><path class="ygrid crisp" d="M60,0h580" transform="translate(0,294.45)" style="stroke: rgb(238, 238, 238); stroke-opacity: 1; stroke-width: 1px;"/><path class="ygrid crisp" d="M60,0h580" transform="translate(0,215.41)" style="stroke: rgb(238, 238, 238); stroke-opacity: 1; stroke-width: 1px;"/><path class="ygrid crisp" d="M60,0h580" transform="translate(0,136.36)" style="stroke: rgb(238, 238, 238); stroke-opacity: 1; stroke-width: 1px;"/></g></g><g class="zerolinelayer"><path class="xzl zl crisp" d="M0,60v330" transform="translate(60,0)" style="stroke: rgb(68, 68, 68); stroke-opacity: 1; stroke-width: 1px;"/><path class="yzl zl crisp" d="M60,0h580" transform="translate(0,373.5)" style="stroke: rgb(68, 68, 68); stroke-opacity: 1; stroke-width: 1px;"/></g><path class="xlines-below"/><path class="ylines-below"/><g class="overlines-below"/><g class="xaxislayer-below"/><g class="yaxislayer-below"/><g class="overaxes-below"/><g class="plot" transform="translate(60, 60)" clip-path="url(#clip4a5a14xyplot)"><g class="scatterlayer mlayer"><g class="trace scatter tracebd304c" style="stroke-miterlimit: 2; opacity: 1;"><g class="fills"/><g class="errorbars"/><g class="lines"><path class="js-line" d="M0,313.5L1.16,33.33L1.45,24.34L2.61,17.17L2.9,16.5L4.93,28.12L5.22,29.45L12.48,66.28L12.77,67.4L15.38,77.38L15.67,78.26L23.5,100.25L23.79,100.55L27.27,105.98L27.56,106.53L29.01,108.27L29.3,106.49L33.37,128.09L33.66,129.46L40.04,146.05L40.33,146.67L41.78,150.16L42.07,150.95L48.74,159.74L49.03,159.31L49.32,159.03L49.61,159.37L49.9,159.75L52.23,162.76L52.52,162.89L56.58,169.37L56.87,169.5L58.03,170.85L58.32,171.69L60.06,173.71L60.35,173.76L61.8,174.8L62.09,174.52L64.99,178.27L65.28,179.08L70.22,183.62L70.51,183.52L71.38,182.33L71.67,182.56L71.96,182.71L72.54,182.84L72.83,183.4L77.47,187.89L77.76,188.67L79.21,191.83L79.5,191.68L80.66,192.43L80.95,191.78L81.24,191.08L81.53,191.39L81.82,191.77L82.69,192.07L82.98,192.58L84.43,193.69L84.72,193.41L85.88,193.62L86.17,194.16L89.65,196.45L89.94,196.04L90.53,196.47L90.82,196.94L93.72,199.67L94.01,199.62L96.04,201.41L96.33,200.86L96.91,199.94L97.2,200.1L97.49,200.13L98.36,199.09L98.65,199.33L98.94,199.83L101.84,203.18L102.13,203.13L103.58,203.26L103.87,202.87L104.74,203.38L105.03,202.99L108.8,203.67L109.09,203.71L109.96,204.37L110.26,205.31L111.13,206.88L111.42,206.84L112.29,206.66L112.58,206.56L114.03,206.45L114.32,206.82L116.35,207.24L116.64,206.84L117.8,206.51L118.09,206.14L118.96,206.79L119.25,207.49L120.41,208.18L120.7,208.17L121.86,208.01L122.15,208.4L123.02,208.42L123.31,208.82L125.34,208.53L125.63,209.29L127.66,211.97L127.95,211.85L132.31,211.24L132.6,211.46L135.79,214.03L136.08,213.76L137.53,212.09L137.82,212.16L140.43,210.61L140.72,210.89L142.75,212.55L143.04,213.24L144.2,213.47L144.49,213.43L145.94,214.59L146.23,214.8L146.81,214.81L147.1,215.44L148.26,216.66L148.55,216.14L149.13,215.01L149.42,215.47L149.71,215.51L150.88,216.46L151.17,216.18L153.49,214.11L153.78,214.38L154.94,215.44L155.23,215.59L156.68,215.06L156.97,215.23L159,215.62L159.29,216.01L160.16,216.36L160.45,216.75L162.19,218.09L162.48,218.25L164.22,218.52L164.51,218.5L165.38,218.13L165.67,218.59L168.57,221.02L168.86,221.47L169.73,221.71L170.03,221.44L170.9,221.48L171.19,221.39L174.38,220.51L174.67,220.48L175.25,220.73L175.54,220.34L175.83,220.38L176.99,219.87L177.28,219.9L177.86,220.59L178.15,222.02L179.31,222.2L179.6,222.07L181.92,223.94L182.21,224.8L182.79,224.89L183.08,223.95L184.24,224.15L184.53,223.57L187.14,224.5L187.43,224.51L188.3,224.86L188.59,225.2L189.46,225.14L189.75,224.76L191.21,223.84L191.5,224.15L193.53,224.52L193.82,224.61L194.98,225.22L195.27,224.77L195.85,224.19L196.14,224.39L196.43,224.44L197.88,225.16L198.17,225L200.78,225.67L201.07,226.23L203.97,227.53L204.26,226.13L205.13,225.8L205.42,226.14L206.29,226.19L206.58,225.78L209.48,224.59L209.77,224.08L211.52,223.95L211.81,224.11L214.42,227.23L214.71,227.21L216.45,227.3L216.74,226.17L218.19,224.99L218.48,224.65L220.51,225.49L220.8,225.34L223.12,225.72L223.41,225.86L224.28,226.73L224.57,227.29L225.44,228.32L225.73,228.1L226.6,227.62L226.89,227.81L229.21,228.45L229.5,228.48L230.09,228.42L230.38,227.96L231.25,227.31L231.54,227.32L232.99,227.19L233.28,227.46L234.44,230.35L234.73,230.51L235.6,230.99L235.89,231.36L237.05,231.38L237.34,231.01L239.95,232.6L240.24,232.42L241.4,232.48L241.69,231.87L245.17,230.6L245.46,230.81L247.49,234.48L247.78,234.88L249.52,235.01L249.81,234.54L253.3,234.84L253.59,234.78L255.33,234.61L255.62,233.59L256.78,232.02L257.07,232.12L258.23,232.53L258.52,232.77L259.68,233.79L259.97,234.64L262.29,234.7L262.58,234.57L265.48,233.57L265.77,233.56L266.35,233.65L266.64,234.17L267.51,234.41L267.8,234.85L270.42,235.52L270.71,235.21L271.58,234.48L271.87,234.56L278.25,235.22L278.54,235.62L279.7,236.06L279.99,236.02L284.63,237.95L284.92,238.63L286.66,237.75L286.95,237.43L291.31,237.2L291.6,237.73L293.05,238.45L293.34,238.33L295.37,238.46L295.66,238.36L296.82,238.32L297.11,237.77L298.56,237.08L298.85,236.89L299.43,235.97L299.72,236.27L300.01,236.7L301.17,238.29L301.46,238.37L302.04,238.86L302.33,239.18L303.78,239.92L304.07,239.92L304.94,239.7L305.23,239.06L306.97,239.12L307.26,239.27L309.87,239.17L310.17,238.92L311.91,238.61L312.2,238.52L313.94,238.8L314.23,239.11L315.1,240.16L315.39,240.04L316.84,241.55L317.13,241.53L318,241.51L318.29,241.08L322.06,240.47L322.35,241.01L325.83,241.71L326.12,242.07L326.7,242.79L326.99,242.61L327.28,242.47L327.57,241.81L328.15,242.16L328.44,243.05L330.48,243.03L330.77,243.04L333.09,241.79L333.38,241.83L335.7,243.04L335.99,242.49L336.86,240.71L337.15,240.83L340.34,241.89L340.63,241.91L344.11,242.17L344.4,242.52L345.27,242.47L345.56,242.53L346.72,241.66L347.01,241.84L348.46,242.04L348.75,242.4L350.79,243.3L351.08,243.09L352.24,241.91L352.53,242.19L356.01,241.79L356.3,242.43L358.04,243.53L358.33,243.5L360.36,244.03L360.65,244.05L362.68,245.29L362.97,245.37L364.42,245.79L364.71,245.69L365.58,246.88L365.87,245.17L367.61,244.74L367.9,244.84L369.06,245.61L369.35,245.74L371.1,246.05L371.39,246.29L372.55,246.19L372.84,245.98L375.16,247.17L375.45,247.93L380.38,246.92L380.67,247.46L382.12,248.04L382.41,248.05L384.73,247.49L385.02,246.98L386.47,245.1L386.76,245.23L388.21,245.82L388.5,245.88L389.95,246.21L390.25,246.12L391.7,246.44L391.99,245.69L392.57,244.03L392.86,243.35L393.73,241.89L394.02,241.92L394.6,242.3L394.89,243.48L395.76,245.69L396.05,245.9L398.95,245.7L399.24,245.05L403.01,245.69L403.3,245.37L405.33,244.85L405.62,244.95L406.2,245.25L406.49,245.78L406.78,246.49L407.36,246L407.65,245.85L408.52,245.48L408.81,245.59L411.72,246.47L412.01,246.59L413.75,246.55L414.04,246.64L415.78,248.07L416.07,248.1L420.71,248.53L421,247.97L422.16,250.96L422.45,251.97L424.19,252.36L424.48,252.29L425.35,251.36L425.64,251.09L426.51,250.62L426.8,250.05L428.54,250.03L428.83,250.22L431.74,250.52L432.03,250.33L434.06,250.38L434.35,250.54L436.09,251.53L436.38,251.65L438.12,253.14L438.41,252.93L441.6,252.64L441.89,252L442.18,251.41L442.47,251.6L442.76,252.22L445.08,252.2L445.37,251.76L447.11,251.08L447.4,251.25L449.14,251.49L449.43,251.16L450.02,250.64L450.31,251.4L451.76,251.82L452.05,251.7L454.08,251.54L454.37,251.84L454.95,252.08L455.24,252.3L456.69,253.69L456.98,253.54L459.01,253.42L459.3,253.5L461.62,253.59L461.91,254.09L462.78,253.92L463.07,253.97L464.23,253.69L464.52,253.72L466.84,253.61L467.13,252.49L468.29,251.62L468.58,251.74L469.74,252.02L470.04,252.02L471.2,253.55L471.49,254.39L472.65,254.52L472.94,254.36L473.81,254.86L474.1,255.03L475.26,255.06L475.55,255.12L479.03,255.58L479.32,255.22L480.48,254.71L480.77,254.78L485.7,254.99L485.99,255.18L487.15,255.99L487.44,255.82L491.22,255.95L491.51,256.46L493.83,256.73L494.12,256.59L495.28,256.29L495.57,256.47L496.15,256.77L496.44,257.75L497.6,257.8L497.89,257.71L499.63,257.5L499.92,257.13L501.08,256.08L501.37,256.16L502.82,256.46L503.11,256.12L503.98,256.73L504.27,256.85L505.72,257.14L506.01,257.11L508.33,257.71L508.62,258.5L510.66,258.44L510.95,258.4L512.11,258.12L512.4,257.97L513.27,258.21L513.56,258.3L517.04,258.81L517.33,259.17L520.81,259.62L521.1,259.39L522.55,259.69L522.84,259.17L523.71,258.32L524,258.38L526.61,258.53L526.9,258.83L528.93,259.29L529.22,259.37L529.51,259.68L529.8,259.06L530.1,258.63L531.55,256.21L531.84,256.28L533.29,256.99L533.58,256.8L536.48,256.51L536.77,256.56L538.22,256.5L538.51,256.53L544.02,259.16L544.31,258.7L549.82,255.97L550.12,256.16L550.99,255.88L551.28,255.72L551.86,255.81L552.15,256.48L553.02,257.81L553.31,257.72L556.21,258.55L556.5,258.27L558.24,257.2L558.53,257.34L560.56,261.69L560.85,260.95L562.01,260.27L562.3,260.41L564.04,260.79L564.33,260.21L566.07,260.28L566.36,260.58L567.81,260.77L568.1,260.55L572.75,260.37L573.04,259.99L573.91,259.37L574.2,259.67L577.39,261.23L577.68,261.41L578.84,262.22L579.13,261.68L580,261.24" style="vector-effect: non-scaling-stroke; fill: none; stroke: rgb(31, 119, 180); stroke-opacity: 1; stroke-width: 2px; opacity: 1;"/></g><g class="points"/><g class="text"/></g></g></g><g class="overplot"/><path class="xlines-above crisp" d="M0,0" style="fill: none;"/><path class="ylines-above crisp" d="M0,0" style="fill: none;"/><g class="overlines-above"/><g class="xaxislayer-above"><g class="xtick"><text text-anchor="middle" x="0" y="403" transform="translate(60,0)" style="font-family: 'Open Sans', verdana, arial, sans-serif; font-size: 12px; fill: rgb(68, 68, 68); fill-opacity: 1; white-space: pre;">0</text></g><g class="xtick"><text text-anchor="middle" x="0" y="403" transform="translate(205.07,0)" style="font-family: 'Open Sans', verdana, arial, sans-serif; font-size: 12px; fill: rgb(68, 68, 68); fill-opacity: 1; white-space: pre;">500</text></g><g class="xtick"><text text-anchor="middle" x="0" y="403" transform="translate(350.15,0)" style="font-family: 'Open Sans', verdana, arial, sans-serif; font-size: 12px; fill: rgb(68, 68, 68); fill-opacity: 1; white-space: pre;">1000</text></g><g class="xtick"><text text-anchor="middle" x="0" y="403" transform="translate(495.22,0)" style="font-family: 'Open Sans', verdana, arial, sans-serif; font-size: 12px; fill: rgb(68, 68, 68); fill-opacity: 1; white-space: pre;">1500</text></g></g><g class="yaxislayer-above"><g class="ytick"><text text-anchor="end" x="59" y="4.199999999999999" transform="translate(0,373.5)" style="font-family: 'Open Sans', verdana, arial, sans-serif; font-size: 12px; fill: rgb(68, 68, 68); fill-opacity: 1; white-space: pre;">0</text></g><g class="ytick"><text text-anchor="end" x="59" y="4.199999999999999" transform="translate(0,294.45)" style="font-family: 'Open Sans', verdana, arial, sans-serif; font-size: 12px; fill: rgb(68, 68, 68); fill-opacity: 1; white-space: pre;">0.5</text></g><g class="ytick"><text text-anchor="end" x="59" y="4.199999999999999" transform="translate(0,215.41)" style="font-family: 'Open Sans', verdana, arial, sans-serif; font-size: 12px; fill: rgb(68, 68, 68); fill-opacity: 1; white-space: pre;">1</text></g><g class="ytick"><text text-anchor="end" x="59" y="4.199999999999999" transform="translate(0,136.36)" style="font-family: 'Open Sans', verdana, arial, sans-serif; font-size: 12px; fill: rgb(68, 68, 68); fill-opacity: 1; white-space: pre;">1.5</text></g></g><g class="overaxes-above"/></g></g><g class="polarlayer"/><g class="ternarylayer"/><g class="geolayer"/><g class="pielayer"/><g class="glimages"/><defs id="topdefs-4a5a14"><g class="clips"/></defs><g class="layer-above"><g class="imagelayer"/><g class="shapelayer"/></g><g class="infolayer"><g class="g-gtitle"><text class="gtitle" x="350" y="30" text-anchor="middle" style="font-family: 'Open Sans', verdana, arial, sans-serif; font-size: 17px; fill: rgb(68, 68, 68); opacity: 1; font-weight: normal; white-space: pre;">Training loss</text></g><g class="g-xtitle"><text class="xtitle" x="350" y="442" text-anchor="middle" style="font-family: 'Open Sans', verdana, arial, sans-serif; font-size: 14px; fill: rgb(68, 68, 68); opacity: 1; font-weight: normal; white-space: pre;">Iterations</text></g><g class="g-ytitle"><text class="ytitle" transform="rotate(-90,22,225)" x="22" y="225" text-anchor="middle" style="font-family: 'Open Sans', verdana, arial, sans-serif; font-size: 14px; fill: rgb(68, 68, 68); opacity: 1; font-weight: normal; white-space: pre;">Loss</text></g></g></svg>