<svg class="main-svg" xmlns="http://www.w3.org/2000/svg" xmlns:xlink="http://www.w3.org/1999/xlink" width="700" height="450" style="" viewBox="0 0 700 450"><rect x="0" y="0" width="700" height="450" style="fill: rgb(255, 255, 255); fill-opacity: 1;"/><defs id="defs-dfad3e"><g class="clips"><clipPath id="clipdfad3exyplot" class="plotclip"><rect width="580" height="330"/></clipPath><clipPath class="axesclip" id="clipdfad3ex"><rect x="60" y="0" width="580" height="450"/></clipPath><clipPath class="axesclip" id="clipdfad3ey"><rect x="0" y="60" width="700" height="330"/></clipPath><clipPath class="axesclip" id="clipdfad3exy"><rect x="60" y="60" width="580" height="330"/></clipPath></g><g class="gradients"/></defs><g class="bglayer"/><g class="layer-below"><g class="imagelayer"/><g class="shapelayer"/></g><g class="cartesianlayer"><g class="subplot xy"><g class="layer-subplot"><g class="shapelayer"/><g class="imagelayer"/></g><g class="gridlayer"><g class="x"><path class="xgrid crisp" transform="translate(194.92,0)" d="M0,60v330" style="stroke: rgb(238, 238, 238); stroke-opacity: 1; stroke-width: 1px;"/><path class="xgrid crisp" transform="translate(329.83,0)" d="M0,60v330" style="stroke: rgb(238, 238, 238); stroke-opacity: 1; stroke-width: 1px;"/><path class="xgrid crisp" transform="translate(464.75,0)" d="M0,60v330" style="stroke: rgb(238, 238, 238); stroke-opacity: 1; stroke-width: 1px;"/><path class="xgrid crisp" transform="translate(599.66,0)" d="M0,60v330" style="stroke: rgb(238, 238, 238); stroke-opacity: 1; stroke-width: 1px;"/></g><g class="y"><path class="ygrid crisp" transform="translate(0,331.75)" d="M60,0h580" style="stroke: rgb(238, 238, 238); stroke-opacity: 1; stroke-width: 1px;"/><path class="ygrid crisp" transform="translate(0,290)" d="M60,0h580" style="stroke: rgb(238, 238, 238); stroke-opacity: 1; stroke-width: 1px;"/><path class="ygrid crisp" transform="translate(0,248.25)" d="M60,0h580" style="stroke: rgb(238, 238, 238); stroke-opacity: 1; stroke-width: 1px;"/><path class="ygrid crisp" transform="translate(0,206.5)" d="M60,0h580" style="stroke: rgb(238, 238, 238); stroke-opacity: 1; stroke-width: 1px;"/><path class="ygrid crisp" transform="translate(0,164.75)" d="M60,0h580" style="stroke: rgb(238, 238, 238); stroke-opacity: 1; stroke-width: 1px;"/><path class="ygrid crisp" transform="translate(0,123)" d="M60,0h580" style="stroke: rgb(238, 238, 238); stroke-opacity: 1; stroke-width: 1px;"/><path class="ygrid crisp" transform="translate(0,81.25)" d="M60,0h580" style="stroke: rgb(238, 238, 238); stroke-opacity: 1; stroke-width: 1px;"/></g></g><g class="zerolinelayer"><path class="xzl zl crisp" transform="translate(60,0)" d="M0,60v330" style="stroke: rgb(68, 68, 68); stroke-opacity: 1; stroke-width: 1px;"/><path class="yzl zl crisp" transform="translate(0,373.5)" d="M60,0h580" style="stroke: rgb(68, 68, 68); stroke-opacity: 1; stroke-width: 1px;"/></g><path class="xlines-below"/><path class="ylines-below"/><g class="overlines-below"/><g class="xaxislayer-below"/><g class="yaxislayer-below"/><g class="overaxes-below"/><g class="plot" transform="translate(60, 60)" clip-path="url(#clipdfad3exyplot)"><g class="scatterlayer mlayer"><g class="trace scatter tracef7d20b" style="stroke-miterlimit: 2; opacity: 1;"><g class="fills"/><g class="errorbars"/><g class="lines"><path class="js-line" d="M0,313.5L0.54,16.5L0.81,21.63L0.94,25.35L2.97,72.29L3.1,73.82L3.51,77.88L3.64,79.69L6.07,99.38L6.21,100.22L8.9,114.88L9.04,115.1L10.79,121.01L10.93,121.4L13.36,129.11L13.49,129.62L13.63,128.17L13.76,131.58L13.9,133.7L15.52,148.58L15.65,149.24L19.16,161.81L19.29,162.2L20.37,165.12L20.51,166.02L24.96,178.85L25.09,178.78L26.31,181.8L26.44,181.5L26.58,181.75L27.79,183.74L27.93,184.15L29.14,186.27L29.41,186.06L29.55,186.04L34,195.18L34.13,195L35.08,196.08L35.21,197.01L36.29,197.66L36.43,197.76L36.56,197.22L36.97,198.19L37.1,197.76L37.24,197.82L41.82,202.22L41.96,202.09L43.17,203.53L43.31,203.71L45.87,204.96L46.01,205.3L46.68,205.03L46.82,205.49L47.89,205.94L48.03,205.86L48.97,207.52L49.24,207.39L49.38,207.1L51,209.39L51.13,209.21L51.27,209.3L52.08,210.1L52.21,209.87L52.35,209.91L53.83,211.22L53.97,211.32L55.72,214.01L55.85,213.75L57.88,215.12L58.01,214.99L59.36,216.72L59.63,216.43L59.77,216.59L61.25,218.24L61.39,218.47L61.66,218.71L62.33,218.06L62.47,217.84L62.87,217.39L63.01,217.89L63.14,218.39L63.41,218.02L63.95,218.42L64.08,218.46L65.16,219.33L65.3,219.36L66.24,220.12L66.38,219.84L67.32,220.53L67.46,220.28L67.59,220.22L68.81,220.4L68.94,220.06L69.75,220.59L69.89,220.47L70.02,219.79L71.91,220.87L72.04,220.95L73.26,222.32L73.39,222.45L74.47,223.26L74.61,223.36L75.28,223.37L75.42,223.74L78.12,226.37L78.25,226.2L78.39,226.04L78.79,226.49L78.93,226.66L80.68,228.24L80.81,228.03L82.57,229.71L82.7,230.03L84.73,232.66L84.86,232.5L85,232.54L87.16,233.09L87.29,233.54L88.91,233.86L89.04,233.69L89.18,233.62L89.45,234.26L89.58,234.4L90.66,234.39L90.8,234.67L91.2,234.57L91.47,234.96L91.61,235.14L92.28,235.94L92.69,235.41L92.82,234.85L92.96,234.66L93.36,235.08L93.5,235.27L95.38,236.67L95.52,236.7L97.14,237.85L97.27,237.55L99.57,240.06L99.7,239.93L100.92,240.1L101.05,239.89L101.86,240.03L102,240.34L103.48,241.23L103.61,241.45L104.29,241.58L104.42,241.42L104.56,241.6L105.64,241.52L105.77,241.39L107.93,242.85L108.07,242.71L111.04,244.98L111.17,244.77L112.25,244.95L112.38,245.28L114.14,245.69L114.27,245.92L114.54,245.71L114.68,246.14L114.81,246.56L116.16,247.42L116.3,247.71L118.05,249.8L118.19,249.63L118.32,249.28L120.75,249.54L120.88,249.31L122.1,250.3L122.23,249.97L122.37,249.98L124.12,247.67L124.26,247.86L124.39,247.88L125.74,248.17L125.88,248.13L126.28,247.79L126.69,248.09L126.82,248.06L127.63,248.12L127.76,248.19L129.11,248.03L129.25,248.04L129.38,248.43L130.06,248.12L130.19,248.05L131,247.66L131.14,247.93L131.27,248.18L131.68,247.41L132.08,248.12L132.22,247.97L133.3,248.67L133.43,248.41L133.57,248.51L134.65,249.2L134.78,249.26L135.99,248.5L136.13,248.79L137.21,250.77L137.34,250.79L138.83,252.14L138.96,252.46L139.91,252.87L140.04,252.93L143.55,254.85L143.68,254.75L145.03,254.72L145.17,254.99L146.11,255.68L146.25,255.56L146.92,255.36L147.06,255.53L147.19,255.76L148.14,255.56L148.27,255.64L149.62,256.77L149.89,256.39L150.03,256.28L150.97,256.09L151.1,256.23L151.24,255.59L151.78,256.14L151.91,256.26L152.59,255.97L152.72,256.29L152.86,256.36L153.67,256.37L153.8,256.22L154.88,255.97L155.02,255.63L156.1,255.1L156.23,255.23L156.64,255.79L156.77,255.84L158.26,256.63L158.39,256.61L161.36,257.6L161.49,257.84L165.14,259.85L165.27,259.5L166.08,259.52L166.22,259.43L167.43,258.27L167.56,258.45L169.59,259.85L169.72,259.64L169.86,259.45L171.21,259.18L171.34,259.39L172.02,259.04L172.15,259.06L173.23,259.01L173.37,259.18L175.12,259.65L175.25,259.66L176.47,260.37L176.6,260.58L177.41,260.23L177.55,260.36L177.68,260.65L177.82,260.3L178.36,260.75L178.49,260.77L180.25,260.23L180.38,260.78L180.52,261.15L181.33,262.06L181.6,261.87L181.73,261.67L183.21,261.67L183.35,261.86L184.7,262.71L184.83,262.62L186.59,261.98L186.72,261.7L189.15,261.26L189.29,261.33L189.96,260.8L190.23,261.16L190.37,261.47L191.44,261.77L191.58,261.46L192.66,260.98L192.79,261.18L192.93,261.23L195.36,261.86L195.49,262.03L196.3,261.6L196.44,261.66L197.65,262.05L197.79,261.97L198.46,261.81L198.6,261.59L199.94,262.4L200.08,262.83L201.16,263.25L201.29,263.21L202.91,263.25L203.05,263.1L203.99,262.83L204.13,263.07L205.75,263.21L205.88,263L207.5,262.46L207.63,262.79L208.44,262.62L208.58,262.9L209.25,262.77L209.39,263.09L209.52,263.44L211.82,262.77L211.95,262.89L214.25,264.47L214.38,264.42L216,264.95L216.13,264.79L217.08,265.09L217.21,265.43L218.02,265.28L218.16,265.69L218.29,265.73L220.05,267.07L220.18,266.81L221.13,267.97L221.26,267.81L221.4,268.01L222.61,268.87L222.74,268.85L223.69,268.94L223.82,268.74L224.9,268.65L225.04,268.66L226.12,268.54L226.25,268.54L227.6,268.18L227.74,268.39L230.03,268.84L230.17,268.63L231.38,269.23L231.51,269.07L231.65,268.9L232.73,268.7L232.86,268.99L235.02,269.93L235.16,269.76L236.24,269.7L236.37,269.77L237.45,269.17L237.59,269.48L237.99,269.21L238.26,269.62L238.39,269.77L239.07,269.26L239.34,269.5L239.47,269.72L240.96,269.35L241.09,269.4L243.52,268.29L243.66,268.42L244.6,268.57L244.74,268.36L246.22,268.55L246.35,268.46L247.7,268.39L247.84,268.32L250.13,268.79L250.27,269.06L251.35,270.25L251.48,269.97L251.62,270.19L252.83,269.88L252.97,269.99L254.18,268.97L254.31,269.23L254.45,269.3L255.66,270.01L255.8,269.9L255.93,269.9L258.9,270.59L259.04,270.45L259.85,270.45L259.98,270.55L261.47,269.29L261.6,269.3L262.27,269.92L262.41,269.63L262.54,269.28L264.97,268.09L265.11,268.52L267,267.37L267.13,267.54L267.27,267.71L269.97,266.33L270.1,266.6L271.04,266.17L271.18,266.42L271.99,266.47L272.12,266.46L273.88,267.95L274.01,268.27L274.55,268.33L274.69,268.69L274.82,268.82L276.04,267.84L276.17,268.19L277.25,269.04L277.39,268.97L277.79,269.35L278.19,268.94L278.33,268.75L279.27,269.29L279.41,269.72L280.76,271.73L280.89,271.7L281.03,271.43L281.3,272.52L281.43,272.53L284.67,274.59L284.81,274.35L285.75,274.38L285.89,274.42L288.04,273.61L288.18,273.69L290.74,275.13L290.88,275.02L293.31,276.14L293.44,276.07L293.98,276.2L294.25,275.82L294.38,275.62L295.33,275.55L295.46,275.42L296.54,276.37L296.68,276.49L298.16,276.21L298.3,276.21L299.24,275.88L299.38,276.03L300.32,276.03L300.46,275.79L305.18,274.98L305.31,275.12L307.61,274.39L307.74,274.61L308.69,274.52L308.82,274.44L309.5,274.2L309.63,274L311.38,273.56L311.52,273.64L312.6,274.02L312.73,273.65L312.87,273.44L313.54,273.07L313.68,272.5L313.95,272.17L314.49,272.55L314.62,272.5L315.57,272.7L315.7,272.7L317.05,272.8L317.19,273.07L318.94,272.31L319.07,272.4L319.88,272.66L320.02,273.08L320.29,272.98L320.69,273.4L320.83,273.5L322.04,272.93L322.18,273.08L324.07,274.82L324.2,274.65L324.34,274.52L324.47,274.16L325.01,274.46L325.15,274.64L329.19,277.28L329.33,277.02L329.46,276.95L330.68,277.16L330.81,277.05L333.51,277.02L333.65,277.03L336.07,276.76L336.21,276.74L336.88,276.46L337.02,276.09L337.69,276.22L337.83,276.44L338.91,276.73L339.04,276.72L340.39,276.59L340.53,276.7L342.55,275.81L342.68,275.98L343.22,276.34L343.36,276.46L344.3,276.62L344.44,276.43L345.25,276.73L345.38,276.43L345.52,276.33L349.3,273.16L349.43,273.38L349.57,273.71L350.24,273.42L350.37,273.6L351.59,273.3L351.72,273.27L353.75,273.17L353.88,272.89L354.83,273.1L354.96,273.16L356.99,273.76L357.12,273.89L357.26,273.67L357.66,274.05L357.79,274.35L359.82,275.66L359.95,276L360.09,275.9L360.36,276.55L360.49,276.97L361.84,278.43L361.98,278.19L362.11,278.04L362.38,278.54L362.52,278.63L362.65,278.71L364.41,279.35L364.54,279.28L368.32,280.65L368.45,280.48L370.07,280.95L370.21,280.96L371.56,280.53L371.69,280.39L375.33,278.38L375.47,278.4L376.01,278.56L376.14,278.27L376.28,277.69L378.3,276.67L378.44,276.72L381.54,276.5L381.67,276.93L382.89,276.13L383.02,276.26L384.37,275.88L384.51,276L389.23,276.93L389.36,277.1L389.63,276.6L389.9,277.51L390.04,277.78L392.2,278.72L392.33,278.65L393.14,278.38L393.28,278.09L393.55,278.36L393.95,278.04L394.09,277.96L394.76,277.87L394.9,278.06L395.03,278.11L396.52,278.55L396.65,278.46L398,278.73L398.13,278.55L398.67,278.47L398.81,278.62L398.94,278.78L399.75,278.69L399.89,278.88L400.02,278.97L404.34,274.37L404.48,274.45L405.15,273.69L405.42,273.89L405.55,274.12L406.77,274.14L406.9,274.38L407.98,274.56L408.12,274.18L408.93,273.85L409.06,273.63L410.55,274.01L410.68,273.97L411.09,274.25L411.36,274.08L411.49,274.2L412.3,274.87L412.57,274.42L412.71,274.49L414.46,275.79L414.59,276.14L416.21,278.59L416.35,278.44L416.48,278.52L417.83,279.19L417.97,279.05L418.64,279.2L418.78,279.25L420.67,277.76L420.8,277.95L422.01,278.01L422.15,277.78L423.09,277.62L423.23,277.61L424.17,277.47L424.31,277.58L425.39,277.77L425.52,277.44L427.01,277.72L427.14,277.65L428.9,277.45L429.03,277.58L430.24,278.34L430.38,278.3L433.75,280.84L433.89,280.98L439.82,283.22L439.96,283.1L440.9,283.31L441.04,283.33L441.98,283.93L442.12,283.84L442.25,283.87L447.11,284.02L447.24,283.8L448.32,284.11L448.46,284.08L450.89,282.89L451.02,282.68L458.85,281.86L458.98,281.74L462.08,282.68L462.22,282.61L462.49,282.49L462.76,282.93L462.89,283.05L464.24,283.33L464.38,283.21L465.59,283L465.73,283.1L466.4,282.8L466.54,282.69L467.48,282.66L467.62,282.85L468.29,283L468.43,282.57L469.5,281.63L469.64,281.65L471.66,280.1L471.8,280.25L471.93,280.64L472.88,280.21L473.01,280.2L476.66,279.38L476.79,278.76L478.54,279.62L478.68,279.53L479.76,279.95L479.89,280L481.11,280.01L481.24,279.95L481.92,279.76L482.05,279.93L482.19,280.08L487.31,281.25L487.45,281.2L487.99,280.92L488.26,281.3L488.39,281.3L488.53,281.08L488.93,281.68L489.07,281.6L489.2,281.5L490.82,282.4L490.96,282.16L492.44,282.54L492.58,282.53L494.87,283.17L495,283.41L495.68,283.47L495.81,283.61L495.95,283.7L498.11,282.86L498.24,282.89L498.92,282.95L499.05,282.86L499.19,282.69L500.54,282.57L500.67,282.68L502.29,283.16L502.42,283.17L502.96,282.89L503.23,283.05L503.37,283.16L504.85,282.71L504.99,282.77L507.28,282.86L507.42,282.65L508.36,282.57L508.49,282.54L509.71,282.56L509.84,282.55L510.65,282.47L510.79,282.73L511.87,282.99L512,283L513.62,283.61L513.76,283.65L514.97,284.19L515.11,284.19L516.45,284.74L516.59,284.55L519.15,284.62L519.29,284.56L520.91,284.31L521.04,284.34L521.99,283.78L522.12,283.42L522.8,281.82L523.2,282L523.34,282L524.41,282.03L524.55,282.02L526.17,282.69L526.3,282.51L531.7,282.1L531.84,282.16L533.99,282.49L534.13,282.11L534.8,282.07L534.94,281.88L535.07,281.49L535.21,281.16L535.61,281.62L535.75,281.99L536.42,283.14L536.69,282.84L536.83,282.88L538.45,283.72L538.58,283.67L541.55,284.91L541.68,284.92L542.63,285.07L542.76,285.22L544.38,285.59L544.52,285.35L546.95,284.16L547.08,284.28L547.89,284.36L548.03,284.06L548.16,284.06L550.18,285.83L550.32,285.8L551.26,285.66L551.4,285.56L552.34,285.51L552.48,285.49L556.39,284.05L556.52,284.14L557.87,283.73L558.01,284.05L559.36,284.95L559.49,284.97L561.25,285.15L561.38,285.18L562.87,285.59L563,285.56L565.02,286.54L565.16,286.31L566.1,286L566.24,285.84L566.37,285.97L566.51,285.5L566.64,285.4L566.78,285.11L568.26,284.65L568.4,284.68L570.29,282.69L570.42,282.65L571.77,282.42L571.91,282.5L572.85,283.1L572.98,283.12L574.47,283.55L574.6,283.58L576.76,283.67L576.9,283.8L579.73,284.4L579.87,284.54L580,284.44" style="vector-effect: non-scaling-stroke; fill: none; stroke: rgb(31, 119, 180); stroke-opacity: 1; stroke-width: 2px; opacity: 1;"/></g><g class="points"/><g class="text"/></g></g></g><g class="overplot"/><path class="xlines-above crisp" d="M0,0" style="fill: none;"/><path class="ylines-above crisp" d="M0,0" style="fill: none;"/><g class="overlines-above"/><g class="xaxislayer-above"><g class="xtick"><text text-anchor="middle" x="0" y="403" transform="translate(60,0)" style="font-family: 'Open Sans', verdana, arial, sans-serif; font-size: 12px; fill: rgb(68, 68, 68); fill-opacity: 1; white-space: pre;">0</text></g><g class="xtick"><text text-anchor="middle" x="0" y="403" transform="translate(194.92,0)" style="font-family: 'Open Sans', verdana, arial, sans-serif; font-size: 12px; fill: rgb(68, 68, 68); fill-opacity: 1; white-space: pre;">1000</text></g><g class="xtick"><text text-anchor="middle" x="0" y="403" transform="translate(329.83,0)" style="font-family: 'Open Sans', verdana, arial, sans-serif; font-size: 12px; fill: rgb(68, 68, 68); fill-opacity: 1; white-space: pre;">2000</text></g><g class="xtick"><text text-anchor="middle" x="0" y="403" transform="translate(464.75,0)" style="font-family: 'Open Sans', verdana, arial, sans-serif; font-size: 12px; fill: rgb(68, 68, 68); fill-opacity: 1; white-space: pre;">3000</text></g><g class="xtick"><text text-anchor="middle" x="0" y="403" transform="translate(599.66,0)" style="font-family: 'Open Sans', verdana, arial, sans-serif; font-size: 12px; fill: rgb(68, 68, 68); fill-opacity: 1; white-space: pre;">4000</text></g></g><g class="yaxislayer-above"><g class="ytick"><text text-anchor="end" x="59" y="4.199999999999999" transform="translate(0,373.5)" style="font-family: 'Open Sans', verdana, arial, sans-serif; font-size: 12px; fill: rgb(68, 68, 68); fill-opacity: 1; white-space: pre;">0</text></g><g class="ytick"><text text-anchor="end" x="59" y="4.199999999999999" transform="translate(0,331.75)" style="font-family: 'Open Sans', verdana, arial, sans-serif; font-size: 12px; fill: rgb(68, 68, 68); fill-opacity: 1; white-space: pre;">0.2</text></g><g class="ytick"><text text-anchor="end" x="59" y="4.199999999999999" transform="translate(0,290)" style="font-family: 'Open Sans', verdana, arial, sans-serif; font-size: 12px; fill: rgb(68, 68, 68); fill-opacity: 1; white-space: pre;">0.4</text></g><g class="ytick"><text text-anchor="end" x="59" y="4.199999999999999" transform="translate(0,248.25)" style="font-family: 'Open Sans', verdana, arial, sans-serif; font-size: 12px; fill: rgb(68, 68, 68); fill-opacity: 1; white-space: pre;">0.6</text></g><g class="ytick"><text text-anchor="end" x="59" y="4.199999999999999" transform="translate(0,206.5)" style="font-family: 'Open Sans', verdana, arial, sans-serif; font-size: 12px; fill: rgb(68, 68, 68); fill-opacity: 1; white-space: pre;">0.8</text></g><g class="ytick"><text text-anchor="end" x="59" y="4.199999999999999" transform="translate(0,164.75)" style="font-family: 'Open Sans', verdana, arial, sans-serif; font-size: 12px; fill: rgb(68, 68, 68); fill-opacity: 1; white-space: pre;">1</text></g><g class="ytick"><text text-anchor="end" x="59" y="4.199999999999999" transform="translate(0,123)" style="font-family: 'Open Sans', verdana, arial, sans-serif; font-size: 12px; fill: rgb(68, 68, 68); fill-opacity: 1; white-space: pre;">1.2</text></g><g class="ytick"><text text-anchor="end" x="59" y="4.199999999999999" transform="translate(0,81.25)" style="font-family: 'Open Sans', verdana, arial, sans-serif; font-size: 12px; fill: rgb(68, 68, 68); fill-opacity: 1; white-space: pre;">1.4</text></g></g><g class="overaxes-above"/></g></g><g class="polarlayer"/><g class="ternarylayer"/><g class="geolayer"/><g class="pielayer"/><g class="glimages"/><defs id="topdefs-dfad3e"><g class="clips"/></defs><g class="layer-above"><g class="imagelayer"/><g class="shapelayer"/></g><g class="infolayer"><g class="g-gtitle"><text class="gtitle" x="350" y="30" text-anchor="middle" dy="0em" style="font-family: 'Open Sans', verdana, arial, sans-serif; font-size: 17px; fill: rgb(68, 68, 68); opacity: 1; font-weight: normal; white-space: pre;">Training loss</text></g><g class="g-xtitle"><text class="xtitle" x="350" y="442" text-anchor="middle" style="font-family: 'Open Sans', verdana, arial, sans-serif; font-size: 14px; fill: rgb(68, 68, 68); opacity: 1; font-weight: normal; white-space: pre;">Iterations</text></g><g class="g-ytitle"><text class="ytitle" transform="rotate(-90,22,225)" x="22" y="225" text-anchor="middle" style="font-family: 'Open Sans', verdana, arial, sans-serif; font-size: 14px; fill: rgb(68, 68, 68); opacity: 1; font-weight: normal; white-space: pre;">Loss</text></g></g></svg>