<svg class="main-svg" xmlns="http://www.w3.org/2000/svg" xmlns:xlink="http://www.w3.org/1999/xlink" width="700" height="450" style="" viewBox="0 0 700 450"><rect x="0" y="0" width="700" height="450" style="fill: rgb(255, 255, 255); fill-opacity: 1;"/><defs id="defs-7ffa66"><g class="clips"><clipPath id="clip7ffa66xyplot" class="plotclip"><rect width="580" height="330"/></clipPath><clipPath class="axesclip" id="clip7ffa66x"><rect x="60" y="0" width="580" height="450"/></clipPath><clipPath class="axesclip" id="clip7ffa66y"><rect x="0" y="60" width="700" height="330"/></clipPath><clipPath class="axesclip" id="clip7ffa66xy"><rect x="60" y="60" width="580" height="330"/></clipPath></g><g class="gradients"/></defs><g class="bglayer"><rect class="bg" x="60" y="60" width="580" height="330" style="fill: rgb(255, 255, 255); fill-opacity: 1; stroke-width: 0;"/></g><g class="layer-below"><g class="imagelayer"/><g class="shapelayer"/></g><g class="cartesianlayer"><g class="subplot xy"><g class="layer-subplot"><g class="shapelayer"/><g class="imagelayer"/></g><g class="gridlayer"><g class="x"><path class="xgrid crisp" d="M0,60v330" transform="translate(132.51,0)" style="stroke: rgb(238, 238, 238); stroke-opacity: 1; stroke-width: 1px;"/><path class="xgrid crisp" d="M0,60v330" transform="translate(205.02,0)" style="stroke: rgb(238, 238, 238); stroke-opacity: 1; stroke-width: 1px;"/><path class="xgrid crisp" d="M0,60v330" transform="translate(277.53,0)" style="stroke: rgb(238, 238, 238); stroke-opacity: 1; stroke-width: 1px;"/><path class="xgrid crisp" d="M0,60v330" transform="translate(350.04,0)" style="stroke: rgb(238, 238, 238); stroke-opacity: 1; stroke-width: 1px;"/><path class="xgrid crisp" d="M0,60v330" transform="translate(422.55,0)" style="stroke: rgb(238, 238, 238); stroke-opacity: 1; stroke-width: 1px;"/><path class="xgrid crisp" d="M0,60v330" transform="translate(495.05,0)" style="stroke: rgb(238, 238, 238); stroke-opacity: 1; stroke-width: 1px;"/><path class="xgrid crisp" d="M0,60v330" transform="translate(567.56,0)" style="stroke: rgb(238, 238, 238); stroke-opacity: 1; stroke-width: 1px;"/></g><g class="y"><path class="ygrid crisp" d="M60,0h580" transform="translate(0,303.11)" style="stroke: rgb(238, 238, 238); stroke-opacity: 1; stroke-width: 1px;"/><path class="ygrid crisp" d="M60,0h580" transform="translate(0,232.72)" style="stroke: rgb(238, 238, 238); stroke-opacity: 1; stroke-width: 1px;"/><path class="ygrid crisp" d="M60,0h580" transform="translate(0,162.34)" style="stroke: rgb(238, 238, 238); stroke-opacity: 1; stroke-width: 1px;"/><path class="ygrid crisp" d="M60,0h580" transform="translate(0,91.95)" style="stroke: rgb(238, 238, 238); stroke-opacity: 1; stroke-width: 1px;"/></g></g><g class="zerolinelayer"><path class="xzl zl crisp" d="M0,60v330" transform="translate(60,0)" style="stroke: rgb(68, 68, 68); stroke-opacity: 1; stroke-width: 1px;"/><path class="yzl zl crisp" d="M60,0h580" transform="translate(0,373.5)" style="stroke: rgb(68, 68, 68); stroke-opacity: 1; stroke-width: 1px;"/></g><path class="xlines-below"/><path class="ylines-below"/><g class="overlines-below"/><g class="xaxislayer-below"/><g class="yaxislayer-below"/><g class="overaxes-below"/><g class="plot" transform="translate(60, 60)" clip-path="url(#clip7ffa66xyplot)"><g class="scatterlayer mlayer"><g class="trace scatter trace821261" style="stroke-miterlimit: 2; opacity: 1;"><g class="fills"/><g class="errorbars"/><g class="lines"><path class="js-line" d="M0,313.5L0.36,16.5L0.8,35.59L0.87,39.98L2.18,91.08L2.25,92.22L2.68,102.65L2.76,104.02L6.89,159.68L6.96,160.09L7.4,163.91L7.47,167.49L9.35,201.81L9.43,202.61L13.05,227.5L13.12,227.47L13.2,227.41L13.78,230.1L14.14,228.51L14.21,228.48L16.31,234.5L16.53,234.37L16.6,234.06L18.49,237.72L18.56,237.49L18.63,237.29L19,235.89L19.21,237.31L19.29,237.96L19.58,237.54L19.87,238L19.94,238.25L22.7,244.74L22.77,244.57L23.13,244.31L23.57,244.62L23.64,244.99L24.73,246.96L24.8,247.07L25.45,248.02L25.74,247.77L25.81,247.75L27.48,251.87L27.55,251.72L28.93,253.13L29,253.61L29.37,254.9L29.8,254.26L29.87,254.17L30.09,253.76L30.45,254.66L30.53,254.56L30.6,254.59L32.12,257.22L32.19,257.05L32.34,256.76L32.7,257.66L32.77,257.86L33.86,259.06L33.93,259.13L35.24,260.95L35.31,260.94L35.53,261.28L35.67,260.37L35.82,260.42L35.89,260.28L36.83,259.06L36.98,259.67L37.05,259.85L38.36,260.69L38.43,260.71L39.01,260.94L39.23,260.71L39.3,260.66L40.1,261.72L40.24,261.43L40.32,261.44L41.62,262.52L41.69,262.34L42.06,262.67L42.35,262.14L42.42,262.06L42.85,262.03L42.93,262.46L43,262.77L44.16,264.43L44.23,264.48L45.17,263.18L45.25,263.38L45.32,263.52L46.19,264.78L46.41,264.34L46.48,264.08L47.42,263.91L47.49,263.84L48.22,264.01L48.29,264.29L50.32,266.31L50.39,266.2L50.54,266.1L50.68,266.65L50.76,267.25L51.12,267.61L51.41,266.83L51.48,266.66L51.63,266.55L51.7,267.22L51.77,267.63L51.99,267.16L52.21,267.95L52.28,267.91L52.35,268.17L52.57,268.63L52.86,267.76L52.93,267.52L53.22,267.17L54.67,269.47L54.74,269.36L55.54,270.75L55.69,270.31L55.76,270.07L55.98,270.17L56.41,270.11L56.48,270.14L56.56,270.29L57.14,269.8L57.35,270.15L57.43,270.14L58.15,269.63L58.22,269.42L58.66,270.02L58.73,270.44L59.38,271.64L59.67,271.21L59.75,271.21L60.18,272.53L60.26,272.84L60.4,272.6L60.55,273.8L60.62,273.8L61.56,274.39L61.63,274.15L61.71,274.09L62.58,273.67L62.72,273.79L62.79,273.72L64.39,275.51L64.46,275.35L64.53,275.3L65.33,273.73L65.62,274.63L65.69,274.65L66.13,274.28L66.42,274.8L66.49,275.06L67.29,275.33L67.36,275.62L68.88,274.56L68.96,274.93L69.39,275.85L69.75,275.24L69.83,275.3L70.77,276.09L70.84,276.09L71.78,276.05L71.86,276.14L72.65,278.3L73.23,277.76L73.31,277.9L74.68,277.48L74.76,277.26L75.12,277L75.63,278.45L75.92,278.32L75.99,278.31L76.93,278.96L77,278.66L77.8,279.16L77.95,278.87L78.02,278.92L79.11,279.68L79.18,279.01L79.25,278.91L79.54,279.1L79.76,278.57L79.83,278.69L79.9,278.45L81.43,279.72L81.5,279.52L81.86,279.66L81.94,279.82L82.01,280.13L84.26,279.6L84.33,280.01L85.63,279.22L85.71,279.33L87.52,281.31L87.59,280.95L89.55,282.43L89.62,281.87L90.85,281.67L90.93,281.76L91.43,281.99L91.58,281.69L91.65,281.51L93.54,283.45L93.61,283.33L93.97,283.52L94.19,283.08L94.26,282.84L94.91,283.37L95.13,283.18L95.2,283.17L95.42,283.52L95.64,282.64L95.93,283.05L96,283.04L96.8,282.81L96.87,282.82L97.67,284.67L97.81,284.51L97.89,284.72L97.96,284.94L98.32,284.43L98.54,284.48L98.61,284.32L99.48,284.13L99.55,284.03L100.86,282.09L101.08,282.36L101.15,282.4L104.63,284.7L104.7,284.6L104.78,284.45L105.72,284.74L105.79,284.24L106.15,283.57L106.66,283.91L106.73,284.09L108.04,286.36L108.11,286.54L111.59,286.19L111.66,286.24L112.68,285.65L112.75,285.78L112.82,286.07L113.84,287.93L113.98,287.77L114.06,287.59L114.85,288.29L115,287.96L115.07,287.74L116.23,285.75L116.3,285.83L116.38,286.32L117.1,286.75L117.17,286.84L118.12,286.17L118.19,286.41L119.71,285.5L119.78,285.79L122.47,286.35L122.54,286.64L123.34,287.53L123.41,287.29L123.48,287.14L124.5,286.58L124.57,286.72L125.59,286.73L125.66,286.73L126.46,287.69L126.53,287.19L126.6,286.88L126.89,287.1L127.11,286.5L127.33,286.8L127.4,286.67L127.91,287.43L128.27,286.89L128.34,286.92L128.92,286.29L129.21,286.52L129.28,286.45L130.88,287.26L130.95,287.46L133.2,287.41L133.27,287.12L133.63,286.39L133.92,287.26L134,287.47L134.72,288.27L135.01,287.94L135.08,287.86L135.52,287.87L135.66,288.14L135.74,288.38L136.24,288.83L136.46,288.18L136.53,288.12L136.68,288.39L136.82,287.77L137.19,287.84L137.26,287.68L138.27,288.53L138.42,288.41L138.49,288.33L139.14,287.88L139.29,288.14L139.36,288.17L139.87,287.91L140.02,288.31L140.09,288.42L141.54,289.8L141.68,289.61L141.76,289.6L142.99,289.99L143.06,289.75L143.42,289.36L143.71,289.67L143.79,290.04L144,289.62L144.51,289.98L144.58,290.14L145.16,290.18L145.24,290.4L145.31,290.65L146.69,290.09L146.83,290.44L146.9,290.5L147.19,290.68L147.48,290.17L147.56,290.04L147.99,290.29L148.28,289.87L148.35,289.77L149.37,289.78L149.44,289.55L149.51,289.22L150.75,288.91L150.82,288.83L150.96,288.57L151.47,288.98L151.54,289.16L153.43,289.86L153.5,290.03L153.86,290.54L154.08,289.84L154.15,289.82L154.59,289.28L154.95,289.6L155.02,289.54L155.82,289.84L155.97,289.6L156.04,289.45L156.84,290.03L156.98,289.43L157.05,289.39L157.71,288.56L157.85,289.03L157.92,289.4L159.88,289.47L159.95,289.39L160.68,289.81L160.75,289.9L162.42,290.5L162.49,290.41L163.29,289.96L163.36,290.05L163.44,290.22L165.03,292.03L165.1,291.85L166.05,291.82L166.12,291.96L167.35,292.51L167.42,292.44L167.5,292.29L168.29,291.39L168.37,291.17L169.09,292.05L169.31,291.77L169.38,291.71L170.4,292.29L170.47,292.47L171.77,291.72L171.85,291.41L173.66,290.89L173.73,291.1L173.8,291.19L174.17,291.48L174.53,290.98L174.6,290.69L178.66,291.62L178.73,291.8L179.02,291.08L179.39,291.97L179.46,292.02L180.19,292.98L180.33,292.52L180.4,292.56L181.2,292.85L181.27,292.68L181.35,292.61L182.51,292.86L182.58,292.72L182.94,293.2L183.67,292.42L183.74,292.52L183.81,292.6L185.12,292.51L185.19,292.31L186.13,291.75L186.2,292.08L186.42,292.67L186.86,291.83L186.93,291.76L187.94,291.31L188.02,291.34L190.92,292.82L190.99,293.01L191.79,292.74L191.86,292.69L192.51,292.92L192.58,293.06L192.95,292.46L193.24,293.2L193.31,293.28L194.47,293.5L194.54,293.48L195.63,293.29L195.7,293.17L197.01,293.26L197.08,293.02L198.09,293.55L198.17,293.39L198.67,292.85L198.96,293.2L199.04,293.23L200.78,293.27L200.85,293.27L203.39,294.08L203.46,293.71L203.53,293.13L204.33,292.03L204.55,292.25L204.62,292.31L205.42,291.79L205.56,292.01L205.64,292.37L206,292.44L206.22,292L206.29,291.77L206.58,291.97L206.8,291.47L206.94,291.54L207.01,291.5L208.03,291.99L208.1,291.87L208.17,291.77L210.2,291.69L210.28,291.59L210.71,291.37L210.78,291.71L210.86,292.27L212.09,293.77L212.16,293.77L213.32,292.55L213.39,292.71L215.57,293.35L215.64,293.26L216.95,293.83L217.02,293.69L217.67,294.18L217.74,294.38L219.56,294.52L219.63,294.76L219.77,294.63L219.92,295.11L220.14,295.29L220.21,295.43L221.59,295.23L221.66,295.36L222.89,295.79L222.97,295.79L223.69,295.2L223.98,295.56L224.05,295.91L225.07,295.37L225.14,295.52L226.08,294.83L226.16,294.72L228.69,296.12L228.77,296.12L229.13,296.03L229.35,296.55L229.42,296.59L230.36,295.39L230.43,295.56L230.51,295.65L231.3,295.95L231.38,295.59L231.88,296.03L232.1,295.77L232.17,295.55L234.93,294.98L235,294.77L237.39,294.56L237.47,294.65L237.97,294.81L238.19,294.41L238.26,294.31L239.79,294.78L239.86,294.89L240.15,294.18L240.66,294.58L240.73,294.48L242.33,294.5L242.4,294.6L244.21,295.15L244.28,294.98L244.36,294.89L246.68,295.18L246.75,294.99L247.98,295.01L248.05,294.95L249.14,294.83L249.21,294.57L249.29,294.53L249.87,294.46L250.08,294.62L250.16,294.63L250.74,294.31L250.81,294.09L250.88,294.06L252.04,294.2L252.11,294.06L252.19,294L253.71,294.3L253.78,294.4L255.74,295.51L255.81,295.18L256.46,295.53L256.54,295.82L257.26,295.99L257.33,295.8L257.41,295.78L258.35,296.09L258.42,296.23L259.07,296.23L259.15,296.12L259.22,295.94L260.45,295.14L260.53,295.4L261.4,295.27L261.47,295.04L262.12,294.74L262.34,294.84L262.41,294.96L262.63,294.75L263.06,295.11L263.14,295.49L263.79,295.99L264.01,295.71L264.08,295.69L265.09,295.59L265.17,295.74L265.24,295.83L266.4,295.64L266.47,295.77L267.49,296.35L267.56,296.37L268.57,295.57L268.72,295.67L268.79,295.89L269.44,296L269.52,295.9L269.59,295.79L270.46,296.14L270.53,295.91L270.6,295.51L270.97,295.4L271.11,294.98L271.18,294.96L273.14,294.59L273.21,294.5L273.94,294.05L274.16,294.34L274.23,294.45L275.1,294.85L275.17,294.66L276.19,294.83L276.26,294.72L277.2,294.28L277.27,294.22L278.07,294.54L278.14,294.69L279.45,295.72L279.59,295.51L279.67,295.53L280.03,295.53L280.18,296.03L280.25,296.17L281.48,296.68L281.7,296.34L281.77,296.33L283.08,295.74L283.15,296.21L284.09,296.2L284.16,296.07L284.24,295.96L285.32,296.36L285.4,296.24L285.47,296.13L286.48,295.45L286.56,295.52L286.85,295.8L287.14,295.24L287.21,295.02L288.37,294.84L288.44,294.99L288.8,294.75L289.17,295.12L289.24,295.28L289.38,295.01L290.04,295.27L290.11,295.5L291.7,296.53L291.85,296.07L291.92,296.08L293.59,297.08L293.73,296.71L293.81,296.45L296.56,297.03L296.63,296.96L296.92,296.77L297.36,296.94L297.43,296.76L298.3,296.21L298.37,296.24L298.45,296.26L300.41,296.4L300.48,296.34L300.99,296.18L301.28,296.39L301.35,296.34L302,296.57L302.15,296.33L302.22,296.37L303.52,295.14L303.6,295.4L305.26,296.47L305.48,295.98L305.55,295.87L305.7,296.17L306.28,295.92L306.35,295.84L307.22,295.51L307.29,295.67L309.54,296.4L309.61,296.56L311.86,296.26L311.93,296.01L316.86,295.7L316.94,295.65L318.1,295.53L318.17,295.7L318.97,296.22L319.04,296.11L319.11,296.11L321.43,297.34L321.51,297.26L322.38,297.17L322.45,297.19L323.54,296.8L323.68,297.02L323.75,296.99L323.83,296.77L324.48,297.03L324.55,297.2L325.13,297.79L325.2,297.89L327.23,297.61L327.31,297.65L327.89,297.45L327.96,297.33L328.03,297.17L331.08,297.3L331.15,297.53L332.16,297.45L332.24,297.34L333.69,296.86L333.76,296.84L334.56,297.39L334.63,297.35L334.7,297.32L336.51,297.65L336.59,297.59L337.89,298.74L337.96,298.69L338.91,298.59L338.98,298.32L339.99,298.56L340.07,298.36L345.8,296.45L345.87,296.47L346.67,296.94L346.81,296.84L346.88,296.74L347.1,296.54L347.61,296.88L347.68,296.91L348.33,296.81L348.41,297.04L348.48,297.2L350.65,297.47L350.73,297.31L352.1,297.88L352.18,297.59L353.12,297.09L353.19,297.15L353.26,297.08L354.13,296.98L354.21,297.04L355.66,297.54L355.73,297.4L355.8,297.14L356.82,297.57L356.89,297.56L358.34,297.69L358.41,297.69L359.93,297.71L360.01,297.89L361.17,297.24L361.24,297.19L363.42,297.8L363.49,297.42L368.2,298.15L368.27,298.31L368.78,298.83L369.07,298.34L369.14,298.12L369.94,298.08L370.01,297.98L374.22,298.14L374.29,297.86L377.63,299.16L377.7,298.97L378.5,299.21L378.57,299.14L378.64,299.13L379.58,298.59L379.66,298.67L381.04,297.86L381.11,297.93L381.18,298.12L383.07,298.75L383.14,298.47L383.21,298.31L384.59,297.56L384.66,297.67L386.18,297.84L386.26,297.86L387.13,298.17L387.2,298.3L387.78,298.03L388.07,298.33L388.14,298.48L390.97,298.3L391.04,298.28L391.33,297.67L391.84,297.94L391.91,297.89L393.07,297.78L393.14,297.92L396.19,298.06L396.26,298.23L397.78,298.3L397.86,298.71L399.23,299.48L399.38,299.25L399.45,299.12L401.27,298.51L401.34,298.56L401.77,298.16L402.06,298.47L402.14,298.66L402.93,298.24L403.22,298.63L403.3,298.62L404.17,297.7L404.24,297.66L405.62,298.32L405.69,298.27L407.57,298.74L407.65,298.59L409.1,299.01L409.17,298.76L410.11,298.69L410.18,298.81L410.26,298.93L411.92,298.78L412,298.84L415.19,299.57L415.26,299.78L416.42,299.52L416.49,299.76L418.01,299.22L418.09,299.12L419.75,299.58L419.83,299.54L421.64,299.8L421.71,299.68L424.61,298.68L424.69,298.75L426.14,298.68L426.21,298.67L428.02,298.91L428.09,298.84L431.14,299.46L431.21,299.59L433.02,299.48L433.1,299.66L433.75,299.39L433.82,299.13L435.42,298.62L435.49,298.71L437.52,299.31L437.59,299.44L439.84,299.33L439.91,299.5L440.78,299.63L440.86,299.84L441.58,300.5L441.65,300.64L442.6,300.91L442.67,301.1L444.7,301.35L444.77,301.3L445.79,301.02L445.86,300.98L448.32,299.63L448.4,299.52L449.48,299.07L449.56,299.08L451.88,298.39L451.95,298.47L453.25,297.74L453.33,297.81L454.27,298.22L454.34,298.04L455.14,298.65L455.21,298.78L456.15,299.69L456.23,299.63L461.23,300L461.3,299.6L461.45,299.37L461.67,299.83L461.96,299.83L462.03,299.85L462.9,299.21L463.04,299.48L463.12,299.48L465,299.78L465.07,299.71L466.09,299.61L466.16,299.46L467.1,299.94L467.18,299.9L467.25,299.8L468.55,298.92L468.63,299.25L468.7,299.35L472.69,299L472.76,299.19L473.85,299.94L473.92,299.99L475.08,300.18L475.15,300.38L476.09,300.78L476.17,300.67L476.46,300.46L476.96,300.71L477.04,300.55L479.43,300.74L479.5,300.63L480.74,299.65L480.81,299.71L481.9,299.87L481.97,299.73L484.07,299.91L484.14,299.73L485.23,299.5L485.3,299.59L485.38,299.7L486.68,300.05L486.75,299.94L486.83,299.83L487.19,300.24L487.55,299.7L487.62,299.58L489,299.85L489.07,299.94L490.31,299.25L490.38,299.45L490.96,299.33L491.1,299.67L491.18,299.8L494.58,299.9L494.66,299.99L495.6,300.13L495.67,300.15L496.54,300.06L496.61,300.01L499.59,300.19L499.66,300L500.75,300.07L500.82,300.09L507.35,300.12L507.42,300.32L508.72,299.87L508.8,299.9L510.46,300.64L510.54,300.48L511.7,300.15L511.77,300.32L511.84,300.46L514.38,301.41L514.45,301.29L515.54,301.44L515.61,301.56L517.42,301.25L517.5,301.29L519.82,301.78L519.89,301.77L520.98,301.28L521.05,301.11L521.56,300.96L521.85,301.27L521.92,301.29L524.24,300.19L524.31,300.24L525.04,299.56L525.26,299.81L525.33,299.82L526.27,299.6L526.34,299.53L531.42,301.1L531.49,300.73L533.23,300.56L533.3,300.74L533.38,300.82L538.74,300.85L538.81,301.09L540.48,301.33L540.56,301.45L542.95,300.97L543.02,300.58L543.96,300.88L544.04,301.09L545.05,301.37L545.12,301.46L546.07,300.88L546.14,300.98L547.66,301.55L547.81,301.27L547.88,301.2L549.62,300.22L549.69,300.33L549.76,300.48L550.34,301.02L550.42,301.15L551.72,301.37L551.79,301.25L553.03,301.22L553.1,301.37L554.19,300.78L554.26,300.62L558.54,300.95L558.61,300.89L560.64,300.3L560.71,300.46L567.38,300.76L567.46,300.57L573.84,300.76L573.91,300.65L577.39,302.42L577.46,302.42L579.64,300.98L579.71,301.21L580,301.53" style="vector-effect: non-scaling-stroke; fill: none; stroke: rgb(31, 119, 180); stroke-opacity: 1; stroke-width: 2px; opacity: 1;"/></g><g class="points"/><g class="text"/></g></g></g><g class="overplot"/><path class="xlines-above crisp" d="M0,0" style="fill: none;"/><path class="ylines-above crisp" d="M0,0" style="fill: none;"/><g class="overlines-above"/><g class="xaxislayer-above"><g class="xtick"><text text-anchor="middle" x="0" y="403" transform="translate(60,0)" style="font-family: 'Open Sans', verdana, arial, sans-serif; font-size: 12px; fill: rgb(68, 68, 68); fill-opacity: 1; white-space: pre;">0</text></g><g class="xtick"><text text-anchor="middle" x="0" y="403" transform="translate(132.51,0)" style="font-family: 'Open Sans', verdana, arial, sans-serif; font-size: 12px; fill: rgb(68, 68, 68); fill-opacity: 1; white-space: pre;">1000</text></g><g class="xtick"><text text-anchor="middle" x="0" y="403" transform="translate(205.02,0)" style="font-family: 'Open Sans', verdana, arial, sans-serif; font-size: 12px; fill: rgb(68, 68, 68); fill-opacity: 1; white-space: pre;">2000</text></g><g class="xtick"><text text-anchor="middle" x="0" y="403" transform="translate(277.53,0)" style="font-family: 'Open Sans', verdana, arial, sans-serif; font-size: 12px; fill: rgb(68, 68, 68); fill-opacity: 1; white-space: pre;">3000</text></g><g class="xtick"><text text-anchor="middle" x="0" y="403" transform="translate(350.04,0)" style="font-family: 'Open Sans', verdana, arial, sans-serif; font-size: 12px; fill: rgb(68, 68, 68); fill-opacity: 1; white-space: pre;">4000</text></g><g class="xtick"><text text-anchor="middle" x="0" y="403" transform="translate(422.55,0)" style="font-family: 'Open Sans', verdana, arial, sans-serif; font-size: 12px; fill: rgb(68, 68, 68); fill-opacity: 1; white-space: pre;">5000</text></g><g class="xtick"><text text-anchor="middle" x="0" y="403" transform="translate(495.05,0)" style="font-family: 'Open Sans', verdana, arial, sans-serif; font-size: 12px; fill: rgb(68, 68, 68); fill-opacity: 1; white-space: pre;">6000</text></g><g class="xtick"><text text-anchor="middle" x="0" y="403" transform="translate(567.56,0)" style="font-family: 'Open Sans', verdana, arial, sans-serif; font-size: 12px; fill: rgb(68, 68, 68); fill-opacity: 1; white-space: pre;">7000</text></g></g><g class="yaxislayer-above"><g class="ytick"><text text-anchor="end" x="59" y="4.199999999999999" transform="translate(0,373.5)" style="font-family: 'Open Sans', verdana, arial, sans-serif; font-size: 12px; fill: rgb(68, 68, 68); fill-opacity: 1; white-space: pre;">0</text></g><g class="ytick"><text text-anchor="end" x="59" y="4.199999999999999" transform="translate(0,303.11)" style="font-family: 'Open Sans', verdana, arial, sans-serif; font-size: 12px; fill: rgb(68, 68, 68); fill-opacity: 1; white-space: pre;">0.5</text></g><g class="ytick"><text text-anchor="end" x="59" y="4.199999999999999" transform="translate(0,232.72)" style="font-family: 'Open Sans', verdana, arial, sans-serif; font-size: 12px; fill: rgb(68, 68, 68); fill-opacity: 1; white-space: pre;">1</text></g><g class="ytick"><text text-anchor="end" x="59" y="4.199999999999999" transform="translate(0,162.34)" style="font-family: 'Open Sans', verdana, arial, sans-serif; font-size: 12px; fill: rgb(68, 68, 68); fill-opacity: 1; white-space: pre;">1.5</text></g><g class="ytick"><text text-anchor="end" x="59" y="4.199999999999999" transform="translate(0,91.95)" style="font-family: 'Open Sans', verdana, arial, sans-serif; font-size: 12px; fill: rgb(68, 68, 68); fill-opacity: 1; white-space: pre;">2</text></g></g><g class="overaxes-above"/></g></g><g class="polarlayer"/><g class="ternarylayer"/><g class="geolayer"/><g class="pielayer"/><g class="glimages"/><defs id="topdefs-7ffa66"><g class="clips"/></defs><g class="layer-above"><g class="imagelayer"/><g class="shapelayer"/></g><g class="infolayer"><g class="g-gtitle"><text class="gtitle" x="350" y="30" text-anchor="middle" style="font-family: 'Open Sans', verdana, arial, sans-serif; font-size: 17px; fill: rgb(68, 68, 68); opacity: 1; font-weight: normal; white-space: pre;">Training loss</text></g><g class="g-xtitle"><text class="xtitle" x="350" y="442" text-anchor="middle" style="font-family: 'Open Sans', verdana, arial, sans-serif; font-size: 14px; fill: rgb(68, 68, 68); opacity: 1; font-weight: normal; white-space: pre;">Iterations</text></g><g class="g-ytitle"><text class="ytitle" transform="rotate(-90,22,225)" x="22" y="225" text-anchor="middle" style="font-family: 'Open Sans', verdana, arial, sans-serif; font-size: 14px; fill: rgb(68, 68, 68); opacity: 1; font-weight: normal; white-space: pre;">Loss</text></g></g></svg>